<svg width="108" height="90" viewBox="0 0 108 90" fill="none" xmlns="http://www.w3.org/2000/svg">
<path d="M42.8387 48.8493C51.2034 44.9577 58.1277 40.1492 62.5671 35.5532C64.789 33.2528 66.3522 31.043 67.1815 29.0646C68.0103 27.0865 68.0684 25.4392 67.4627 24.1434C66.8571 22.8476 65.5547 21.8332 63.5031 21.1952C61.4511 20.557 58.7495 20.3313 55.5548 20.5508C49.1722 20.9894 41.029 23.1903 32.6644 27.0816C24.2997 30.973 17.3755 35.7817 12.9361 40.3776C10.714 42.6782 9.15064 44.888 8.32167 46.8663C7.49286 48.8442 7.43463 50.4917 8.04032 51.7876C8.64596 53.0831 9.94832 54.0976 11.9999 54.7356C14.0519 55.3741 16.7536 55.5997 19.9483 55.38C26.3309 54.9414 34.4741 52.7404 42.8387 48.8493Z" stroke="#F5F5F5" stroke-width="2"/>
<path d="M41.1519 27.0818C32.7873 23.1904 24.6441 20.9896 18.2615 20.551C15.0669 20.3315 12.3651 20.5571 10.3131 21.1953C8.26155 21.8333 6.95923 22.8477 6.35354 24.1435C5.7479 25.4394 5.80613 27.0867 6.63494 29.0647C7.46391 31.0432 9.02724 33.253 11.2493 35.5534C15.6887 40.1493 22.613 44.9582 30.9776 48.8493C39.3423 52.7408 47.4853 54.9414 53.8679 55.38C57.0626 55.5997 59.7643 55.3741 61.8162 54.7361C63.8678 54.098 65.1702 53.0835 65.7758 51.7876C66.3815 50.4917 66.3234 48.8446 65.4946 46.8663C64.6658 44.888 63.1021 42.6782 60.8802 40.3778C56.4408 35.7818 49.5165 30.9731 41.1519 27.0818Z" stroke="#F5F5F5" stroke-width="2"/>
<path d="M49.447 37.8169C49.447 28.6252 48.0363 20.3463 45.7869 14.3997C44.6612 11.4231 43.3436 9.07999 41.9287 7.49806C40.5134 5.91537 39.0804 5.17606 37.6941 5.17606C36.3078 5.17606 34.8748 5.91537 33.4595 7.49806C32.0448 9.07999 30.7272 11.4231 29.6013 14.3997C27.352 20.3463 25.9412 28.6252 25.9412 37.8169C25.9412 47.0087 27.352 55.2875 29.6013 61.2342C30.7272 64.2106 32.0448 66.5539 33.4595 68.1359C34.8748 69.7183 36.3078 70.4578 37.6941 70.4578C39.0804 70.4578 40.5134 69.7183 41.9287 68.1359C43.3436 66.5539 44.6612 64.2106 45.7869 61.2342C48.0363 55.2875 49.447 47.0087 49.447 37.8169Z" stroke="#F5F5F5" stroke-width="2"/>
<path d="M9.32224 29.5775C11.4299 29.5775 13.1386 31.2801 13.1386 33.3803C13.1386 35.4805 11.4299 37.1831 9.32224 37.1831C7.21453 37.1831 5.50589 35.4805 5.50589 33.3803C5.50589 31.2801 7.21453 29.5775 9.32224 29.5775Z" fill="#F5F5F5"/>
<path d="M44.8987 59.5775C47.0064 59.5775 48.715 61.2801 48.715 63.3803C48.715 65.4805 47.0064 67.1831 44.8987 67.1831C42.791 67.1831 41.0823 65.4805 41.0823 63.3803C41.0823 61.2801 42.791 59.5775 44.8987 59.5775Z" fill="#F5F5F5"/>
<path d="M37.5144 33.1035C41.0273 33.1035 43.875 35.9411 43.875 39.4415C43.875 42.9419 41.0273 45.7795 37.5144 45.7795C34.0016 45.7795 31.1539 42.9419 31.1539 39.4415C31.1539 35.9411 34.0016 33.1035 37.5144 33.1035Z" fill="#F5F5F5"/>
<path d="M67.1625 19.6552C69.2702 19.6552 70.9788 21.3577 70.9788 23.458C70.9788 25.5582 69.2702 27.2608 67.1625 27.2608C65.0548 27.2608 63.3461 25.5582 63.3461 23.458C63.3461 21.3577 65.0548 19.6552 67.1625 19.6552Z" fill="#F5F5F5"/>
<path d="M10.5285 80.6472C10.6119 80.768 10.7332 80.8436 10.8925 80.8741C11.0593 80.9041 11.1996 80.9193 11.3133 80.9193H11.393C11.4081 80.9117 11.4422 80.9007 11.4953 80.8855C11.5484 80.8627 11.6053 80.8437 11.6659 80.8284C11.7266 80.8137 11.7797 80.7984 11.8252 80.7832C11.8782 80.768 11.9124 80.7604 11.9275 80.7604C12.0868 80.7152 12.2763 80.681 12.4962 80.6586C12.7161 80.6282 12.9019 80.5715 13.0536 80.4883C13.0687 80.4731 13.1104 80.4427 13.1787 80.3975C13.2469 80.3522 13.3227 80.3028 13.4062 80.25C13.4971 80.1896 13.5806 80.1325 13.6564 80.0797C13.7398 80.0193 13.8005 79.9775 13.8384 79.9551C13.8535 79.9475 13.8839 79.9208 13.9294 79.8756C13.9748 79.8224 14.0014 79.7924 14.009 79.7848C14.0772 79.6787 14.1455 79.5617 14.2137 79.4328C14.2895 79.3044 14.3654 79.1907 14.4412 79.0927C14.4564 79.0622 14.4791 79.0318 14.5095 79.0018C14.5474 78.9562 14.5853 78.9224 14.6232 78.8996C14.6308 78.8996 14.6383 78.8806 14.6459 78.8429C14.6611 78.8049 14.6725 78.7597 14.6801 78.7065C14.6876 78.6537 14.6914 78.6046 14.6914 78.559C14.699 78.5138 14.7028 78.4834 14.7028 78.4682C14.771 78.1732 14.8279 77.8821 14.8734 77.5948C14.9265 77.2994 14.953 76.9931 14.953 76.6753V76.0513C14.8924 76.006 14.8393 75.9532 14.7938 75.8924C14.7559 75.8244 14.718 75.7563 14.6801 75.6883C14.6497 75.6203 14.6156 75.5522 14.5777 75.4842C14.5398 75.4082 14.4943 75.3363 14.4412 75.2683C14.4109 75.2383 14.3578 75.1813 14.2819 75.098C14.2137 75.0148 14.1379 74.9282 14.0545 74.8373C13.9711 74.7465 13.8877 74.6632 13.8042 74.5876C13.7284 74.5044 13.6716 74.4439 13.6337 74.4059C13.5275 74.3835 13.391 74.3607 13.2242 74.3379C13.0649 74.3151 12.9209 74.2851 12.792 74.247C12.6327 74.1942 12.4849 74.1376 12.3484 74.0768C12.2119 74.0163 12.0564 73.9863 11.882 73.9863C11.7531 73.9863 11.6053 73.9935 11.4385 74.0087C11.2716 74.0239 11.1465 74.0696 11.0631 74.1452C10.8887 74.2813 10.7598 74.4173 10.6764 74.5534C10.593 74.6822 10.5323 74.8183 10.4944 74.962C10.4641 75.098 10.4451 75.2493 10.4375 75.4158C10.4375 75.5822 10.4337 75.7677 10.4261 75.9718C10.4261 76.0022 10.4224 76.0741 10.4148 76.1877C10.4072 76.2934 10.3996 76.4108 10.392 76.5393C10.3845 76.6606 10.3769 76.7776 10.3693 76.8913C10.3617 77.0045 10.3579 77.0763 10.3579 77.1067C10.3579 77.1976 10.3541 77.3298 10.3466 77.5039C10.3466 77.678 10.3466 77.8631 10.3466 78.06C10.3466 78.2565 10.3427 78.4496 10.3352 78.6384C10.3352 78.8277 10.3352 78.979 10.3352 79.0927C10.3352 79.3496 10.3466 79.5993 10.3693 79.8414C10.392 80.0835 10.4451 80.3522 10.5285 80.6472ZM8.77691 89.5775C8.32954 89.5775 7.88593 89.5889 7.44614 89.6117C7.00635 89.6417 6.57032 89.6569 6.13811 89.6569C5.88031 89.6569 5.75139 89.5394 5.75139 89.3049C5.75139 89.2221 5.75897 89.1427 5.77417 89.067C5.79692 88.9838 5.85376 88.9191 5.94477 88.8739C6.21016 88.8511 6.49832 88.8211 6.8092 88.7831C7.12011 88.7379 7.40824 88.6508 7.67362 88.522C7.72669 88.492 7.77222 88.4353 7.81012 88.3521C7.85561 88.2613 7.88975 88.1628 7.91249 88.0568C7.94281 87.9511 7.96556 87.8489 7.98072 87.7504C7.99588 87.6448 8.00728 87.5615 8.01486 87.5007V87.1263V86.9675C8.01486 86.9375 8.01863 86.8918 8.02621 86.8314C8.03379 86.7634 8.04137 86.6915 8.04895 86.6159C8.06416 86.5403 8.07551 86.4722 8.08309 86.4114C8.09067 86.3434 8.09448 86.2982 8.09448 86.2753C8.09448 86.1621 8.09448 85.988 8.09448 85.7535C8.09448 85.5114 8.09448 85.2427 8.09448 84.9477C8.10206 84.6528 8.10583 84.3427 8.10583 84.0173C8.11341 83.6844 8.11722 83.3704 8.11722 83.0755C8.12481 82.7729 8.12857 82.5042 8.12857 82.2697C8.12857 82.0352 8.12857 81.8611 8.12857 81.7479C8.12857 81.5434 8.12857 81.2941 8.12857 80.9987C8.12857 80.7038 8.12481 80.3936 8.11722 80.0683C8.11722 79.7353 8.11341 79.4066 8.10583 79.0813C8.10583 78.7483 8.10206 78.4496 8.09448 78.1846C8.09448 77.9125 8.09448 77.6852 8.09448 77.5039C8.09448 77.3222 8.09448 77.2162 8.09448 77.1862C8.09448 77.0877 8.09067 76.9213 8.08309 76.6868C8.08309 76.4446 8.07932 76.1911 8.07174 75.9266C8.07174 75.6617 8.06416 75.4158 8.04895 75.1889C8.04137 74.9544 8.03002 74.7917 8.01486 74.7008C7.97695 74.6252 7.9011 74.5648 7.78738 74.5196C7.67362 74.4739 7.54851 74.4401 7.41201 74.4173C7.27554 74.3869 7.13904 74.3683 7.00254 74.3607C6.87366 74.3455 6.77506 74.3341 6.70683 74.3265C6.66134 74.3265 6.58172 74.3227 6.46796 74.3151C6.35424 74.3075 6.2329 74.3003 6.10402 74.2927C5.9751 74.2851 5.85376 74.2775 5.74004 74.2698C5.62628 74.2622 5.55047 74.2546 5.51256 74.247C5.48224 74.2318 5.43294 74.1904 5.36471 74.1224C5.30401 74.0468 5.26611 74.0011 5.25095 73.9863V73.8727C5.25095 73.7518 5.2775 73.6724 5.33057 73.6344C5.38364 73.5891 5.47084 73.5587 5.59218 73.5435C5.69074 73.5359 5.86134 73.5245 6.10402 73.5097C6.35424 73.4945 6.61585 73.4793 6.88882 73.4641C7.16937 73.4417 7.43479 73.4227 7.68501 73.4075C7.93523 73.3922 8.10964 73.3846 8.2082 73.3846C8.23852 73.3846 8.28405 73.3846 8.3447 73.3846C8.40535 73.377 8.46981 73.3732 8.53804 73.3732C8.60632 73.3732 8.67455 73.3732 8.74278 73.3732C8.81105 73.3656 8.86789 73.3622 8.91342 73.3622C9.00439 73.347 9.0802 73.3356 9.14089 73.328C9.20154 73.3128 9.25842 73.3052 9.31149 73.3052C9.42525 73.3052 9.64892 73.3052 9.98257 73.3052C10.3162 73.3052 10.7067 73.309 11.1541 73.3166C11.6091 73.3242 12.0906 73.3318 12.5986 73.3394C13.1067 73.347 13.5919 73.3622 14.0545 73.3846C14.0772 73.3846 14.1152 73.3922 14.1682 73.4075C14.2213 73.4227 14.2782 73.4417 14.3388 73.4641C14.3995 73.4793 14.4564 73.4945 14.5095 73.5097C14.5625 73.5245 14.6004 73.5359 14.6232 73.5435C14.6308 73.5435 14.6535 73.5511 14.6914 73.5663C14.7369 73.5739 14.7824 73.5815 14.8279 73.5891C14.8734 73.5967 14.9151 73.6077 14.953 73.6229C14.9985 73.6306 15.0251 73.6344 15.0327 73.6344C15.0554 73.642 15.0971 73.6724 15.1578 73.7252C15.226 73.7704 15.2943 73.8236 15.3625 73.8841C15.4307 73.9369 15.4914 73.9901 15.5445 74.0429C15.6051 74.0958 15.6469 74.13 15.6696 74.1452C15.6696 74.1676 15.6886 74.1866 15.7265 74.2018C15.772 74.217 15.8023 74.2318 15.8175 74.247C16.0753 74.3531 16.2838 74.4629 16.443 74.5762C16.6023 74.6898 16.7312 74.8221 16.8298 74.9734C16.9283 75.117 17.0042 75.2873 17.0573 75.4842C17.1103 75.6731 17.1634 75.8962 17.2165 76.1535C17.2392 76.282 17.2733 76.4332 17.3189 76.6073C17.3719 76.7738 17.3984 76.9213 17.3984 77.0501C17.3984 77.0801 17.3947 77.1105 17.3871 77.1405C17.3795 77.1634 17.3757 77.1786 17.3757 77.1862C17.3454 77.5263 17.2923 77.8631 17.2165 78.196C17.1406 78.529 17.0648 78.8544 16.989 79.1721C16.9662 79.1945 16.9435 79.2287 16.9207 79.2739C16.898 79.312 16.879 79.3382 16.8639 79.3534C16.8563 79.3686 16.826 79.4066 16.7729 79.467C16.7274 79.5275 16.6743 79.5917 16.6136 79.6597C16.553 79.7277 16.4961 79.7924 16.443 79.8528C16.39 79.9132 16.3596 79.9475 16.352 79.9551C16.352 79.9699 16.3369 80.0003 16.3065 80.0455L16.2611 80.1139C16.1473 80.318 16.0033 80.4655 15.8288 80.5563C15.6544 80.6472 15.4573 80.7342 15.2374 80.8175C15.2222 80.8399 15.1616 80.8589 15.0554 80.8741C14.9493 80.8893 14.8886 80.9041 14.8734 80.9193C14.8658 80.9193 14.8431 80.9307 14.8052 80.9535C14.7749 80.9763 14.7407 81.0025 14.7028 81.0329C14.6649 81.0629 14.627 81.0896 14.589 81.1124C14.5511 81.1352 14.5284 81.15 14.5208 81.1576C14.4374 81.2108 14.3351 81.2598 14.2137 81.3051C14.0924 81.3431 13.9673 81.3769 13.8384 81.4073C13.7095 81.4377 13.5806 81.4601 13.4517 81.4753C13.3227 81.4906 13.2128 81.502 13.1218 81.5096H10.7901C10.6688 81.5548 10.5778 81.6152 10.5172 81.6908C10.4641 81.7665 10.4261 81.8535 10.4034 81.952C10.3806 82.0428 10.3655 82.1413 10.3579 82.2469C10.3579 82.3453 10.3579 82.4476 10.3579 82.5532C10.3579 82.576 10.3541 82.6255 10.3466 82.7011C10.3389 82.7767 10.3314 82.86 10.3238 82.9504C10.3162 83.0336 10.3086 83.1131 10.301 83.1887C10.2934 83.2644 10.2897 83.3138 10.2897 83.3362V83.5293C10.2897 83.6125 10.2897 83.6806 10.2897 83.7334C10.2973 83.779 10.32 83.8432 10.3579 83.9265C10.3579 83.9569 10.3579 84.0059 10.3579 84.0739C10.3579 84.1344 10.3579 84.2024 10.3579 84.278C10.3655 84.3465 10.3693 84.4107 10.3693 84.4711C10.3693 84.5315 10.3693 84.5734 10.3693 84.5958C10.3693 84.8303 10.3541 85.0614 10.3238 85.2883C10.301 85.5152 10.2897 85.7421 10.2897 85.969V86.0032C10.2897 86.018 10.2934 86.056 10.301 86.1165C10.3086 86.1693 10.3124 86.2035 10.3124 86.2187C10.3352 86.6497 10.3617 87.0393 10.392 87.3875C10.4224 87.7352 10.502 88.0872 10.6309 88.4425C10.6385 88.4806 10.6802 88.5258 10.756 88.579C10.8318 88.6242 10.9152 88.6698 11.0062 88.7151C11.1048 88.7603 11.1996 88.7983 11.2906 88.8287C11.3816 88.8587 11.4498 88.8739 11.4953 88.8739H11.9503C12.1474 88.8739 12.3408 88.8663 12.5304 88.8511C12.7199 88.8287 12.9133 88.8173 13.1104 88.8173C13.1635 88.8173 13.2242 88.8359 13.2924 88.8739C13.3607 88.9115 13.4213 88.961 13.4744 89.0214C13.5351 89.0818 13.5844 89.146 13.6223 89.2145C13.6602 89.2825 13.6791 89.343 13.6791 89.3958C13.6791 89.4714 13.6716 89.536 13.6564 89.5889C13.6412 89.6493 13.5844 89.6983 13.4858 89.7363H13.0536H12.61C12.5645 89.7363 12.4849 89.7325 12.3711 89.7249C12.265 89.7173 12.1512 89.7059 12.0299 89.6911C11.9086 89.6835 11.7948 89.6721 11.6887 89.6569C11.5901 89.6493 11.5257 89.6417 11.4953 89.6341C11.4801 89.6341 11.4536 89.6303 11.4157 89.6227C11.3854 89.6155 11.3513 89.6079 11.3133 89.6003C11.2754 89.6003 11.2375 89.5965 11.1996 89.5889C11.1693 89.5813 11.1503 89.5775 11.1427 89.5775H11.0631C10.8887 89.5927 10.7143 89.6041 10.5399 89.6117C10.3655 89.6189 10.1835 89.6341 9.99392 89.6569C9.97118 89.6569 9.92569 89.6531 9.85746 89.6455C9.79677 89.6379 9.72854 89.6265 9.65273 89.6117C9.58446 89.6041 9.51623 89.5965 9.448 89.5889C9.3873 89.5813 9.34182 89.5775 9.31149 89.5775H8.77691ZM19.0591 89.2255C19.0591 89.2031 19.0629 89.1689 19.0705 89.1237C19.078 89.078 19.0819 89.0404 19.0819 89.01C19.1577 88.9572 19.2524 88.9153 19.3662 88.8853C19.4799 88.8549 19.5975 88.8321 19.7188 88.8173C19.8477 88.8021 19.969 88.7907 20.0827 88.7831C20.1965 88.7755 20.295 88.7641 20.3785 88.7493C20.3861 88.7417 20.3936 88.7227 20.4012 88.6922C20.4088 88.6546 20.4164 88.6204 20.424 88.5904C20.4316 88.5524 20.4391 88.5182 20.4467 88.4882C20.4543 88.4501 20.4581 88.4277 20.4581 88.4201C20.4733 88.4049 20.4809 88.3783 20.4809 88.3407C20.4809 88.3027 20.477 88.2651 20.4695 88.227C20.4619 88.1818 20.4581 88.1552 20.4581 88.1476C20.4733 88.1248 20.4922 88.0948 20.5149 88.0568C20.5453 88.0191 20.5605 87.9887 20.5605 87.9663V87.8075C20.5605 87.6938 20.5567 87.5953 20.5491 87.5121C20.5415 87.4289 20.5112 87.3194 20.4581 87.1829C20.4657 87.1149 20.4695 87.0169 20.4695 86.888C20.477 86.7596 20.4846 86.6121 20.4922 86.4456C20.4998 86.2791 20.5036 86.1013 20.5036 85.9124C20.5112 85.7155 20.5149 85.519 20.5149 85.3221C20.5149 84.9211 20.5074 84.5467 20.4922 84.199C20.4846 83.8508 20.4733 83.6011 20.4581 83.4498C20.4581 83.3818 20.4543 83.2758 20.4467 83.1321C20.4467 82.9884 20.4429 82.8258 20.4354 82.6441C20.4354 82.4628 20.4316 82.2735 20.424 82.077C20.4164 81.8801 20.4088 81.6908 20.4012 81.5096C20.4012 81.3279 20.3974 81.169 20.3898 81.0329C20.3898 80.8893 20.3861 80.787 20.3785 80.7266C20.3785 80.6886 20.3747 80.6396 20.3671 80.5791C20.3595 80.5107 20.3482 80.4427 20.333 80.3746C20.3254 80.3066 20.314 80.2462 20.2989 80.1934C20.2913 80.1401 20.2837 80.1063 20.2761 80.0911C20.2382 79.9698 20.1548 79.8904 20.0259 79.8528C19.9046 79.8148 19.7756 79.7886 19.6392 79.7734C19.5102 79.7506 19.3927 79.7206 19.2866 79.6825C19.188 79.6373 19.1387 79.5465 19.1387 79.4104C19.1387 79.3572 19.1425 79.3082 19.1501 79.2625C19.1577 79.2097 19.1918 79.1721 19.2524 79.1493C19.2752 79.1341 19.3093 79.1189 19.3548 79.1037C19.4079 79.0889 19.461 79.0736 19.5141 79.0584C19.5747 79.0356 19.6278 79.0204 19.6733 79.0132C19.7188 78.998 19.7491 78.9866 19.7643 78.979H20.3785H20.9927C21.0003 78.979 21.023 78.9866 21.0609 79.0018C21.1064 79.0094 21.1519 79.0204 21.1974 79.0356C21.2429 79.0432 21.2884 79.0508 21.3339 79.0584C21.3794 79.066 21.4097 79.0698 21.4249 79.0698C21.4552 79.0622 21.5197 79.0508 21.6182 79.0356C21.7168 79.0132 21.823 78.9904 21.9367 78.9676C22.058 78.9448 22.168 78.9262 22.2666 78.911C22.3651 78.8958 22.4296 78.8844 22.4599 78.8768H22.9604H23.404C23.4571 78.8844 23.5177 78.8996 23.586 78.9224C23.6618 78.9376 23.7338 78.96 23.8021 78.9904C23.8703 79.0204 23.9272 79.0584 23.9727 79.1037C24.0182 79.1493 24.0409 79.1983 24.0409 79.2515C24.0409 79.3572 23.9765 79.4404 23.8476 79.5008C23.7186 79.5541 23.567 79.5993 23.3926 79.6373C23.2182 79.6673 23.04 79.6977 22.858 79.7277C22.6836 79.7506 22.5509 79.781 22.4599 79.8186C22.3917 79.8718 22.3462 79.936 22.3235 80.0117C22.3083 80.0797 22.2703 80.1325 22.2097 80.1706V80.749V81.3165C22.2097 81.3241 22.2173 81.3697 22.2324 81.4525C22.2552 81.5286 22.2742 81.5738 22.2893 81.589V81.6908V81.7479C22.2817 81.7479 22.2666 81.7593 22.2438 81.7817C22.2287 81.7893 22.2173 81.7969 22.2097 81.8045C22.1945 81.8349 22.1831 81.8877 22.1756 81.9634C22.1756 82.039 22.1718 82.1184 22.1642 82.2017C22.1642 82.2849 22.1604 82.3682 22.1528 82.4514C22.1528 82.527 22.1452 82.5798 22.1301 82.6103C22.168 82.6935 22.1945 82.7991 22.2097 82.928C22.2324 83.0565 22.259 83.1777 22.2893 83.291C22.2893 83.3062 22.2931 83.3362 22.3007 83.3818C22.3083 83.4194 22.3159 83.4651 22.3235 83.5179C22.3386 83.5635 22.35 83.6087 22.3576 83.6539C22.3727 83.692 22.3803 83.7148 22.3803 83.7224C22.3803 83.7448 22.3841 83.7752 22.3917 83.8128C22.3993 83.8508 22.4107 83.8922 22.4258 83.9379C22.4486 83.9755 22.4713 84.0097 22.4941 84.0401C22.5244 84.0701 22.5585 84.0853 22.5964 84.0853H22.6419C23.0514 84.0249 23.495 83.9793 23.9727 83.9493C24.4504 83.9189 24.8902 83.9037 25.2921 83.9037C25.3831 83.9037 25.4627 83.9227 25.5309 83.9607C25.6067 83.9983 25.6864 84.0173 25.7698 84.0173C26.0807 84.0173 26.3688 83.9983 26.6342 83.9607C26.8996 83.9151 27.1877 83.896 27.4986 83.9037L27.6579 83.8242C27.6579 83.809 27.6617 83.7486 27.6692 83.6429C27.6768 83.5369 27.6806 83.4537 27.6806 83.3932C27.6806 83.3552 27.6768 83.2986 27.6692 83.2229C27.6692 83.1473 27.6692 83.0755 27.6692 83.0075C27.6692 82.9318 27.6655 82.8638 27.6579 82.8029C27.6579 82.7425 27.6579 82.7049 27.6579 82.6897C27.6579 82.6441 27.6541 82.5346 27.6465 82.3606C27.6389 82.1789 27.6276 81.9862 27.6124 81.7817C27.6048 81.5776 27.5972 81.3883 27.5896 81.2146C27.582 81.0405 27.5783 80.9307 27.5783 80.8855V80.3522C27.5555 80.163 27.4986 80.0193 27.4077 79.9208C27.3167 79.8148 27.2067 79.7391 27.0778 79.6939C26.9565 79.6411 26.8276 79.6069 26.6911 79.5917C26.5546 79.5689 26.4257 79.5465 26.3044 79.5236C26.1906 79.5008 26.0958 79.4708 26.02 79.4328C25.9442 79.3952 25.9063 79.3272 25.9063 79.2287C25.9063 79.1151 25.9518 79.028 26.0428 78.9676C26.1337 78.9072 26.2323 78.8768 26.3385 78.8768H26.5205C26.566 78.8844 26.6683 78.8958 26.8276 78.911C26.9868 78.9262 27.1536 78.9448 27.328 78.9676C27.5025 78.9904 27.6655 79.0132 27.8171 79.0356C27.9763 79.0508 28.0749 79.0622 28.1129 79.0698H28.147H28.1697C28.238 79.0546 28.3289 79.0356 28.4427 79.0132C28.5565 78.9904 28.6664 78.9714 28.7725 78.9562C28.8863 78.941 28.9849 78.9262 29.0683 78.911C29.1593 78.8958 29.2123 78.8844 29.2275 78.8768C29.2502 78.8768 29.2806 78.8653 29.3185 78.8429C29.364 78.8125 29.3943 78.7973 29.4095 78.7973H29.5915H29.7621L29.9213 78.8429C29.9592 78.8582 29.9971 78.8691 30.0351 78.8768C30.073 78.8768 30.0957 78.8768 30.1033 78.8768C30.1261 78.8844 30.1791 78.892 30.2626 78.8996C30.346 78.9072 30.437 78.9148 30.5355 78.9224C30.6341 78.93 30.7213 78.941 30.7971 78.9562C30.8805 78.9638 30.9298 78.9714 30.945 78.979C30.9753 78.979 31.0132 78.9904 31.0588 79.0132C31.1042 79.0356 31.127 79.0546 31.127 79.0698C31.127 79.0998 31.1346 79.1379 31.1497 79.1831C31.1573 79.2135 31.1611 79.2363 31.1611 79.2515C31.1611 79.2663 31.1611 79.2929 31.1611 79.331C31.1611 79.361 31.1573 79.3952 31.1497 79.4328C31.1421 79.4708 31.1308 79.5084 31.1156 79.5465C31.1004 79.5765 31.0777 79.5955 31.0474 79.6031C31.0095 79.6031 30.945 79.6107 30.854 79.6259C30.763 79.6335 30.6682 79.6483 30.5697 79.6711C30.4711 79.6863 30.3763 79.7015 30.2853 79.7167C30.1943 79.7315 30.1336 79.7391 30.1033 79.7391C29.9441 79.7696 29.819 79.8338 29.728 79.9322C29.6445 80.0231 29.5573 80.1363 29.4664 80.2728C29.4588 80.3104 29.4512 80.3784 29.4436 80.4769C29.436 80.5677 29.4285 80.6696 29.4209 80.7832C29.4209 80.8969 29.4171 81.0063 29.4095 81.1124C29.4095 81.2108 29.4095 81.2789 29.4095 81.3165V83.359V85.3787C29.4095 85.4091 29.4095 85.4658 29.4095 85.549C29.4171 85.6322 29.4209 85.7193 29.4209 85.8101C29.4285 85.901 29.436 85.988 29.4436 86.0713C29.4512 86.1545 29.4588 86.2111 29.4664 86.2411C29.4815 86.2487 29.4929 86.2639 29.5005 86.2868C29.5157 86.302 29.5308 86.3172 29.546 86.332L29.5915 86.4V86.4908C29.5915 86.5517 29.5839 86.6007 29.5687 86.6383C29.5612 86.6763 29.527 86.7215 29.4664 86.7748L29.4095 88.0458C29.4095 88.0682 29.4133 88.1138 29.4209 88.1818C29.436 88.2422 29.4512 88.2875 29.4664 88.3179C29.4891 88.3407 29.5194 88.3745 29.5573 88.4201C29.6029 88.4653 29.6484 88.511 29.6938 88.5562C29.7469 88.6014 29.8 88.6432 29.8531 88.6808C29.9137 88.7189 29.9706 88.7417 30.0237 88.7493C30.0995 88.7641 30.1943 88.7793 30.308 88.7945C30.4218 88.8097 30.5318 88.8359 30.6379 88.8739C30.7516 88.9044 30.8464 88.9534 30.9222 89.0214C31.0056 89.0894 31.0474 89.1841 31.0474 89.3049C31.0474 89.411 30.9905 89.4904 30.8768 89.5432C30.7706 89.5889 30.6758 89.6117 30.5924 89.6117H30.5355C30.5204 89.6117 30.4862 89.6079 30.4332 89.6003C30.3877 89.5927 30.3346 89.5851 30.2739 89.5775C30.2208 89.5622 30.1678 89.5508 30.1147 89.5432C30.0692 89.5284 30.0388 89.5208 30.0237 89.5208C30.0085 89.5208 29.9668 89.5284 29.8986 89.5432C29.8379 89.5508 29.7735 89.5622 29.7052 89.5775C29.637 89.5851 29.5725 89.5927 29.5119 89.6003C29.4512 89.6079 29.4171 89.6117 29.4095 89.6117H29.3526H29.2958C29.273 89.6117 29.2086 89.6079 29.1024 89.6003C28.9962 89.5927 28.8787 89.5851 28.7498 89.5775C28.6285 89.5622 28.5072 89.5508 28.3858 89.5432C28.2721 89.536 28.2001 89.5284 28.1697 89.5208H26.1793C26.1489 89.5208 26.1148 89.5132 26.0769 89.498C26.039 89.4752 26.02 89.4566 26.02 89.4414V89.3049V89.1689C26.0958 89.0176 26.2209 88.9229 26.3954 88.8853C26.5698 88.8397 26.7442 88.8135 26.9186 88.8059C27.1006 88.7907 27.2636 88.7793 27.4077 88.7717C27.5517 88.7565 27.6352 88.6999 27.6579 88.6014C27.6579 88.5486 27.6579 88.4615 27.6579 88.3407C27.6655 88.2118 27.6692 88.0834 27.6692 87.9549C27.6692 87.8184 27.6692 87.69 27.6692 87.5691C27.6768 87.4479 27.6806 87.3646 27.6806 87.3194C27.6806 87.2362 27.6768 87.1263 27.6692 86.9903C27.6692 86.8542 27.6692 86.7215 27.6692 86.5931C27.6692 86.457 27.6655 86.3396 27.6579 86.2411C27.6579 86.1355 27.6579 86.0713 27.6579 86.0484C27.6579 86.0332 27.6541 85.9918 27.6465 85.9238C27.6465 85.8553 27.6427 85.7835 27.6352 85.7079C27.6276 85.6246 27.6162 85.549 27.601 85.481C27.5934 85.4053 27.5859 85.3525 27.5783 85.3221C27.5631 85.2165 27.5366 85.1256 27.4986 85.05C27.4683 84.9744 27.4039 84.9135 27.3053 84.8683H26.1451H24.9622C24.9319 84.8683 24.8447 84.8721 24.7006 84.8797C24.5641 84.8873 24.4125 84.8987 24.2456 84.9135C24.0789 84.9211 23.9196 84.9287 23.7679 84.9363C23.6239 84.9439 23.5367 84.9477 23.5063 84.9477H23.3699H23.0741C23.0514 84.9477 23.0135 84.9515 22.9604 84.9591C22.9149 84.9668 22.8618 84.9744 22.8012 84.982C22.7481 84.9891 22.695 84.9968 22.6419 85.0044C22.5964 85.012 22.5623 85.0196 22.5395 85.0272C22.532 85.0424 22.5168 85.0724 22.4941 85.118C22.4713 85.1556 22.4599 85.1822 22.4599 85.1975C22.4448 85.2579 22.4258 85.3411 22.403 85.4472C22.3879 85.5452 22.3689 85.6475 22.3462 85.7535C22.331 85.8515 22.3159 85.9424 22.3007 86.0256C22.2931 86.1013 22.2893 86.1469 22.2893 86.1621C22.2893 86.2149 22.2931 86.2982 22.3007 86.4114C22.3083 86.5251 22.3159 86.6497 22.3235 86.7862C22.331 86.9146 22.3386 87.0393 22.3462 87.1606C22.3614 87.2814 22.3727 87.3798 22.3803 87.4555C22.3803 87.4631 22.3841 87.4859 22.3917 87.5235C22.3993 87.5539 22.4069 87.5877 22.4144 87.6258C22.422 87.6634 22.4296 87.7014 22.4372 87.739C22.4523 87.777 22.4599 87.7999 22.4599 87.8075V88.159V88.3179C22.4599 88.3407 22.4713 88.3897 22.4941 88.4653C22.5168 88.541 22.532 88.5866 22.5395 88.6014C22.5471 88.6014 22.5737 88.6128 22.6192 88.6356C22.6722 88.6584 22.7253 88.6884 22.7784 88.7265C22.8391 88.7565 22.8959 88.7907 22.949 88.8287C23.0021 88.8663 23.0438 88.9006 23.0741 88.9306C23.1348 88.9686 23.2296 88.9876 23.3585 88.9876C23.4874 88.9876 23.6163 88.991 23.7452 88.9986C23.8741 89.0062 23.9878 89.029 24.0864 89.067C24.185 89.1046 24.2343 89.1765 24.2343 89.2825C24.2343 89.3506 24.2191 89.3996 24.1888 89.43C24.1584 89.4528 24.1016 89.4828 24.0182 89.5208C23.7983 89.5508 23.586 89.5698 23.3812 89.5775C23.1841 89.5775 22.9831 89.5775 22.7784 89.5775H21.8002H21.0268C20.9661 89.5775 20.86 89.5775 20.7083 89.5775C20.5642 89.5851 20.405 89.5889 20.2306 89.5889C20.0638 89.5965 19.9046 89.6003 19.7529 89.6003C19.6013 89.6079 19.4951 89.6117 19.4344 89.6117C19.4117 89.6117 19.3813 89.6041 19.3434 89.5889C19.3055 89.5813 19.2676 89.5698 19.2297 89.5546C19.1918 89.5322 19.1577 89.5132 19.1273 89.498C19.097 89.4752 19.0819 89.4566 19.0819 89.4414C19.0742 89.411 19.0705 89.381 19.0705 89.3506C19.0629 89.3201 19.0591 89.2787 19.0591 89.2255ZM34.2207 89.5775C34.2207 89.5698 34.2245 89.5622 34.2321 89.5546C34.2321 89.547 34.2321 89.5432 34.2321 89.5432C34.2397 89.536 34.2435 89.5284 34.2435 89.5208C34.2511 89.5056 34.2738 89.479 34.3117 89.4414C34.3572 89.4034 34.4027 89.362 34.4482 89.3163C34.4937 89.2711 34.5354 89.2293 34.5733 89.1917C34.6188 89.146 34.6529 89.1122 34.6757 89.0894L34.7895 89.067C34.8198 89.0594 34.8463 89.0518 34.869 89.0442C34.8994 89.0366 34.9221 89.0328 34.9373 89.0328C35.0738 88.9948 35.2217 88.961 35.3809 88.9306C35.5477 88.8929 35.7031 88.8473 35.8472 88.7945C35.9913 88.7341 36.1126 88.6546 36.2112 88.5562C36.3173 88.4577 36.378 88.3217 36.3932 88.1476V87.2852C36.3932 86.907 36.3742 86.5327 36.3363 86.1621C36.306 85.7911 36.2984 85.4129 36.3136 85.0272C36.2832 84.9591 36.2264 84.8455 36.143 84.6866C36.0595 84.5201 35.9723 84.3465 35.8814 84.1648C35.7903 83.9831 35.7031 83.8128 35.6197 83.6539C35.5439 83.4879 35.4908 83.3742 35.4605 83.3138C35.4529 83.291 35.4264 83.242 35.3809 83.1663C35.3354 83.0907 35.2861 83.0113 35.233 82.928C35.1875 82.8372 35.142 82.7539 35.0966 82.6783C35.0586 82.6027 35.0359 82.5532 35.0283 82.5308C35.0131 82.5156 34.9904 82.4704 34.9601 82.3944C34.9373 82.3187 34.9107 82.2393 34.8804 82.1565C34.8501 82.0656 34.8235 81.9824 34.8008 81.9067C34.7781 81.8235 34.7629 81.7741 34.7553 81.7593C34.7553 81.7289 34.7288 81.6799 34.6757 81.6114C34.6226 81.5434 34.5961 81.502 34.5961 81.4868C34.4444 81.2446 34.3117 80.9911 34.198 80.7266C34.0918 80.4617 33.9629 80.2006 33.8113 79.9437C33.7961 79.9437 33.7809 79.917 33.7658 79.8642C33.7506 79.8034 33.7316 79.762 33.7089 79.7391C33.6558 79.6939 33.5535 79.6559 33.4018 79.6259C33.2501 79.5879 33.0947 79.5427 32.9355 79.4894C32.7762 79.4366 32.6359 79.3724 32.5146 79.2968C32.3933 79.2135 32.3326 79.1075 32.3326 78.979C32.3326 78.9186 32.3516 78.8729 32.3895 78.8429C32.4274 78.8125 32.4729 78.7897 32.526 78.7749C32.5791 78.7521 32.6322 78.7407 32.6852 78.7407C32.7459 78.7331 32.7989 78.7255 32.8445 78.7179H33.5724H34.4027C34.4331 78.7255 34.5089 78.7369 34.6302 78.7521C34.7515 78.7597 34.8804 78.7711 35.0169 78.7859C35.1534 78.7935 35.2785 78.8011 35.3923 78.8087C35.5136 78.8163 35.5894 78.8201 35.6197 78.8201H35.9723C36.0482 78.8201 36.1278 78.8239 36.2112 78.8315C36.3022 78.8391 36.3818 78.8582 36.4501 78.8882C36.5183 78.911 36.5752 78.9486 36.6207 79.0018C36.6662 79.0546 36.6889 79.1265 36.6889 79.2173C36.6889 79.3234 36.6548 79.4028 36.5865 79.4556C36.5183 79.5008 36.4424 79.5427 36.3591 79.5803C36.2832 79.6183 36.2112 79.6635 36.143 79.7167C36.0823 79.762 36.052 79.8376 36.052 79.9437V80.0345C36.0747 80.0873 36.1088 80.1896 36.1543 80.3408C36.1998 80.4845 36.2491 80.6396 36.3022 80.806C36.3629 80.9725 36.4197 81.1314 36.4728 81.2827C36.5259 81.4263 36.5638 81.5286 36.5865 81.589C36.5865 81.6042 36.6017 81.6456 36.632 81.7137C36.6624 81.7741 36.6965 81.8459 36.7344 81.9291C36.7723 82.0048 36.8064 82.077 36.8368 82.1451C36.8747 82.2131 36.8974 82.2545 36.905 82.2697C36.9126 82.2849 36.924 82.3187 36.9391 82.372C36.9619 82.4172 36.9846 82.4704 37.0074 82.5308C37.0301 82.5837 37.0491 82.6365 37.0642 82.6897C37.0794 82.7349 37.0908 82.7653 37.0984 82.7806C37.1211 82.8258 37.1514 82.8786 37.1894 82.9394C37.2273 82.9998 37.2728 83.0603 37.3258 83.1207C37.3789 83.1739 37.432 83.2191 37.4851 83.2572C37.5457 83.2948 37.5988 83.3138 37.6443 83.3138H37.7126C37.7201 83.2986 37.7467 83.2682 37.7922 83.2229C37.8453 83.1777 37.8756 83.1511 37.8832 83.1435C37.8907 83.1359 37.906 83.1093 37.9287 83.0641C37.959 83.0113 37.9855 82.958 38.0083 82.9052C38.0386 82.8448 38.0652 82.7915 38.0879 82.7463C38.1183 82.6935 38.1372 82.6593 38.1448 82.6441C38.1524 82.6365 38.1675 82.6065 38.1903 82.5532C38.2131 82.5004 38.2396 82.4438 38.2699 82.3834C38.3002 82.3225 38.3268 82.2659 38.3495 82.2131C38.3723 82.1527 38.3874 82.1146 38.395 82.0994C38.4102 82.077 38.4367 82.02 38.4746 81.9291C38.5125 81.8387 38.5391 81.7817 38.5542 81.7593C38.6225 81.6304 38.6945 81.4982 38.7704 81.3621C38.8538 81.218 38.9296 81.0744 38.9979 80.9307C39.0737 80.7794 39.1343 80.632 39.1798 80.4883C39.2329 80.3446 39.2595 80.2006 39.2595 80.0569C39.2595 79.966 39.1912 79.8904 39.0547 79.83C38.9182 79.762 38.7704 79.6977 38.6111 79.6373C38.4519 79.5689 38.304 79.5008 38.1675 79.4328C38.0311 79.3572 37.9628 79.2625 37.9628 79.1493C37.9628 79.0889 37.9855 79.0394 38.0311 79.0018C38.0841 78.9562 38.141 78.9224 38.2017 78.8996C38.2699 78.8691 38.3344 78.8506 38.395 78.8429C38.4633 78.8277 38.5163 78.8201 38.5542 78.8201H39.521C39.5438 78.8201 39.5969 78.8201 39.6803 78.8201C39.7713 78.8125 39.866 78.8087 39.9646 78.8087C40.0632 78.8011 40.1542 78.7935 40.2376 78.7859C40.321 78.7787 40.3703 78.7711 40.3855 78.7635C40.4007 78.7635 40.4462 78.7635 40.522 78.7635C40.6054 78.7559 40.6964 78.7483 40.7949 78.7407C40.9011 78.7331 41.0035 78.7293 41.102 78.7293C41.2082 78.7217 41.2916 78.7179 41.3523 78.7179H42.3191C42.3872 78.7179 42.4406 78.7369 42.4783 78.7749C42.5236 78.8125 42.5541 78.8391 42.5693 78.8544C42.5998 78.9072 42.6147 78.9676 42.6147 79.0356C42.6223 79.1036 42.6261 79.1417 42.6261 79.1493C42.6261 79.1645 42.6185 79.1945 42.6032 79.2401C42.596 79.2853 42.577 79.3272 42.5465 79.3648C42.5164 79.4028 42.4669 79.4518 42.3987 79.5122C42.338 79.5655 42.2774 79.6031 42.2167 79.6259C42.1484 79.6483 42.0651 79.6673 41.9665 79.6825C41.8755 79.6977 41.7807 79.7129 41.6821 79.7277C41.5835 79.7429 41.4888 79.7658 41.3978 79.7962C41.3068 79.8262 41.231 79.8756 41.1703 79.9437L39.4414 81.6684C39.4263 81.6837 39.3959 81.7251 39.3504 81.7931C39.305 81.8611 39.2746 81.9029 39.2595 81.9182C39.2367 81.9482 39.1912 82.0124 39.123 82.1108C39.0547 82.2017 38.9827 82.3001 38.9068 82.4058C38.831 82.5118 38.759 82.6103 38.6908 82.7011C38.6225 82.7844 38.577 82.8372 38.5542 82.86C38.4481 83.0337 38.3874 83.2077 38.3723 83.3818C38.3571 83.5559 38.3116 83.7296 38.2358 83.9037V84.5958V85.2993C38.2358 85.3373 38.2358 85.4206 38.2358 85.549C38.2434 85.6779 38.2471 85.8291 38.2471 86.0032C38.2547 86.1693 38.2623 86.351 38.2699 86.5479C38.2775 86.7444 38.2851 86.9298 38.2926 87.1039C38.3002 87.27 38.304 87.4213 38.304 87.5577C38.3116 87.6862 38.3154 87.7694 38.3154 87.8075V88.1248V88.2384C38.323 88.3217 38.4102 88.3897 38.577 88.4425C38.7438 88.4882 38.9296 88.5258 39.1343 88.5562C39.3466 88.5866 39.5476 88.6166 39.7372 88.647C39.9343 88.6699 40.0632 88.7036 40.1239 88.7493C40.1466 88.7641 40.177 88.7945 40.2149 88.8397C40.2603 88.8777 40.3059 88.9191 40.3514 88.9648C40.3969 89.01 40.4386 89.0556 40.4765 89.1008C40.522 89.1389 40.5523 89.1651 40.5675 89.1803V89.2825C40.5675 89.3506 40.5409 89.4034 40.4878 89.4414C40.4423 89.4714 40.3893 89.498 40.3286 89.5208C39.6917 89.5508 39.0509 89.5736 38.4064 89.5889C37.7694 89.6041 37.1287 89.6117 36.4842 89.6117H35.6994C35.5629 89.6341 35.4377 89.6683 35.324 89.7135C35.2179 89.7668 35.0927 89.7929 34.9487 89.7929H34.7212C34.615 89.7929 34.5051 89.7815 34.3913 89.7591C34.2776 89.7363 34.2207 89.6759 34.2207 89.5775ZM43.9001 86.1845C43.9988 86.1545 44.0936 86.1997 44.1843 86.3206C44.2829 86.4418 44.3702 86.5893 44.446 86.7634C44.5218 86.9298 44.5862 87.0925 44.6396 87.2514C44.6925 87.4103 44.734 87.5045 44.7645 87.5349C44.7721 87.5501 44.795 87.5839 44.8327 87.6372C44.8708 87.6824 44.9123 87.7352 44.9581 87.796C45.011 87.8489 45.0601 87.9017 45.1059 87.9549C45.1588 88.0077 45.1969 88.0458 45.2194 88.0682C45.2194 88.0834 45.2384 88.1138 45.2761 88.159C45.3219 88.2042 45.3557 88.2308 45.3786 88.2384C45.3862 88.2765 45.4129 88.3445 45.4582 88.4425C45.504 88.5334 45.5341 88.5866 45.5493 88.6014C45.6099 88.6922 45.7009 88.7717 45.8225 88.8397C45.9512 88.9006 46.0876 88.9496 46.2316 88.9876C46.376 89.0252 46.52 89.0556 46.664 89.078C46.808 89.0932 46.9292 89.1008 47.0278 89.1008H47.1075C47.3654 89.0328 47.6005 88.9229 47.8126 88.7717C48.0325 88.6204 48.2184 88.4425 48.37 88.2384C48.5293 88.0344 48.6508 87.8075 48.7342 87.5577C48.8173 87.308 48.8592 87.0469 48.8592 86.7748C48.8592 86.6687 48.8516 86.5365 48.8363 86.3776C48.8211 86.2187 48.7605 86.086 48.6546 85.9804C48.6241 85.95 48.5788 85.9048 48.5178 85.8444C48.4649 85.7835 48.4081 85.7231 48.3471 85.6627C48.2866 85.6022 48.2298 85.5452 48.1769 85.4924C48.1311 85.4396 48.0973 85.4091 48.0744 85.4015C47.9681 85.3183 47.8584 85.2541 47.7445 85.2089C47.6309 85.1556 47.5132 85.118 47.3921 85.0952C47.2781 85.0648 47.1608 85.0424 47.0393 85.0272C46.9258 85.0044 46.808 84.982 46.6869 84.9591C46.4518 84.9059 46.1787 84.8303 45.8678 84.7322C45.5645 84.6262 45.2689 84.4977 44.9805 84.3465C44.6925 84.1952 44.4308 84.0211 44.1957 83.8242C43.9606 83.6201 43.7976 83.3856 43.7065 83.1207C43.6841 83.0831 43.6612 83.0189 43.6383 82.928C43.6159 82.8296 43.593 82.7235 43.5701 82.6103C43.5549 82.4966 43.5439 82.3834 43.5363 82.2697C43.5286 82.1565 43.5248 82.0542 43.5248 81.9634C43.5248 81.8425 43.5325 81.7703 43.5473 81.7479C43.5473 81.7403 43.5473 81.7175 43.5473 81.6799C43.5473 81.6418 43.5473 81.6042 43.5473 81.5662C43.5549 81.521 43.5587 81.4791 43.5587 81.4415C43.5663 81.4035 43.574 81.3807 43.5816 81.3731C43.5816 81.3583 43.5854 81.3241 43.593 81.2713C43.6083 81.2108 43.6235 81.15 43.6383 81.0896C43.6612 81.0291 43.6765 80.9725 43.6841 80.9193C43.6993 80.8589 43.7065 80.8213 43.7065 80.806C43.7065 80.7984 43.718 80.7756 43.7408 80.738C43.7713 80.7 43.8014 80.6624 43.8319 80.6244C43.8696 80.5868 43.9001 80.5525 43.9229 80.5221C43.953 80.4845 43.9721 80.4617 43.9797 80.4541C44.0026 80.4313 44.0288 80.3937 44.0593 80.3408C44.097 80.2876 44.1351 80.2348 44.1733 80.182C44.2109 80.1211 44.2453 80.0683 44.2753 80.0231C44.3134 79.9775 44.3397 79.9436 44.3549 79.9208C44.4007 79.8452 44.4384 79.7848 44.4689 79.7391C44.5066 79.6939 44.5485 79.6559 44.5938 79.6259C44.6396 79.5955 44.6887 79.5655 44.7416 79.5351C44.795 79.5046 44.8632 79.4632 44.9466 79.4104C44.9542 79.3876 44.9805 79.3572 45.0262 79.3196C45.0716 79.2739 45.1021 79.2515 45.1173 79.2515C45.1321 79.2363 45.1588 79.2173 45.1969 79.1945C45.2346 79.1645 45.2613 79.1493 45.2761 79.1493C45.3295 79.1341 45.3977 79.1151 45.4811 79.0927C45.5722 79.0622 45.6594 79.0318 45.7429 79.0018C45.8263 78.9714 45.8983 78.9486 45.9589 78.9338C46.0194 78.911 46.0537 78.8996 46.0613 78.8996C46.1295 78.8844 46.1977 78.8691 46.2659 78.8544C46.3189 78.8391 46.3722 78.8277 46.4252 78.8201C46.4781 78.8049 46.52 78.7973 46.5501 78.7973C46.8004 78.7973 47.0736 78.8201 47.3692 78.8653C47.6648 78.9034 47.9266 78.941 48.154 78.979C48.1616 78.979 48.1845 78.9904 48.2222 79.0132C48.2675 79.028 48.3133 79.047 48.3586 79.0698C48.4119 79.0851 48.4611 79.1037 48.5064 79.1265C48.5521 79.1417 48.5822 79.1493 48.5974 79.1493C48.6809 79.1493 48.7529 79.1303 48.8139 79.0927C48.8744 79.0546 48.9312 79.0132 48.9841 78.9676C49.0451 78.9224 49.1019 78.8806 49.1548 78.8429C49.2154 78.8049 49.2878 78.7859 49.3708 78.7859C49.4318 78.7859 49.4809 78.8125 49.519 78.8653C49.5567 78.9186 49.5834 78.9828 49.5987 79.0584C49.6211 79.1265 49.6325 79.1983 49.6325 79.2739C49.6402 79.342 49.644 79.3952 49.644 79.4328C49.644 79.5841 49.6135 79.7277 49.5529 79.8642C49.5 80.0003 49.4657 80.1363 49.4504 80.2728C49.4356 80.3708 49.428 80.4997 49.428 80.6586C49.428 80.8175 49.4127 80.9725 49.3822 81.1238C49.3598 81.2675 49.3102 81.3959 49.2344 81.5096C49.1662 81.6152 49.0527 81.6684 48.8935 81.6684C48.7872 81.6684 48.7037 81.6228 48.6432 81.532C48.5898 81.4339 48.5445 81.3241 48.5064 81.2032C48.4687 81.0744 48.4306 80.9459 48.3929 80.8175C48.3548 80.6886 48.3056 80.5901 48.2451 80.5221C48.154 80.4089 48.0477 80.2914 47.9266 80.1706C47.8126 80.0493 47.6877 79.9398 47.5513 79.8414C47.4145 79.7353 47.2667 79.6521 47.1075 79.5917C46.9558 79.5237 46.7966 79.4894 46.6297 79.4894H46.573C46.3227 79.5503 46.0952 79.6259 45.8907 79.7167C45.6933 79.8072 45.5226 79.9246 45.3786 80.0683C45.2422 80.212 45.1359 80.386 45.0601 80.5901C44.9843 80.7946 44.9466 81.0406 44.9466 81.3279V81.4525C44.9466 81.4906 44.9581 81.5434 44.9805 81.6114C45.0034 81.6722 45.0262 81.7403 45.0487 81.8159C45.0792 81.8915 45.1097 81.9634 45.1397 82.0314C45.1702 82.0918 45.1969 82.1337 45.2194 82.1565C45.2194 82.1789 45.2232 82.2017 45.2308 82.2245C45.2461 82.2393 45.2613 82.2545 45.2761 82.2697C45.3977 82.3758 45.4964 82.4514 45.5722 82.4966C45.648 82.5422 45.7653 82.5798 45.9245 82.6103C45.9322 82.6179 45.9627 82.6255 46.0156 82.6327C46.0685 82.6403 46.1295 82.6479 46.1977 82.6555C46.2659 82.6555 46.3303 82.6593 46.3909 82.6669C46.4518 82.6745 46.4933 82.6821 46.5162 82.6897C46.5238 82.6973 46.5501 82.7121 46.5958 82.7349C46.6488 82.7501 46.7017 82.7691 46.7551 82.7915C46.8157 82.8068 46.8686 82.822 46.9143 82.8372C46.9673 82.8524 46.9978 82.86 47.0054 82.86C47.0278 82.8672 47.0812 82.8824 47.1646 82.9052C47.2553 82.9204 47.3501 82.9394 47.4488 82.9618C47.5475 82.9846 47.6381 83.0037 47.7216 83.0189C47.8126 83.0337 47.8698 83.0413 47.8923 83.0413C47.9228 83.0565 47.9681 83.0717 48.0291 83.0869C48.0973 83.0945 48.1388 83.1055 48.154 83.1207C48.1616 83.1283 48.1769 83.1435 48.1993 83.1663C48.2298 83.1811 48.2603 83.2001 48.2904 83.2229L48.4043 83.3138C48.4196 83.3214 48.4534 83.3328 48.5064 83.3476C48.5597 83.3628 48.6165 83.3818 48.6771 83.4046C48.7381 83.4194 48.791 83.4384 48.8363 83.4613C48.8897 83.4765 48.9236 83.4879 48.9388 83.4951C48.9464 83.4951 48.9617 83.5065 48.9841 83.5293C49.0146 83.5521 49.0451 83.5783 49.0752 83.6087C49.1057 83.6315 49.1324 83.6577 49.1548 83.6882C49.1853 83.711 49.2044 83.7224 49.2116 83.7224C49.2192 83.7372 49.2382 83.7562 49.2687 83.779C49.2988 83.7942 49.3331 83.8128 49.3708 83.8356C49.4089 83.8508 49.4432 83.866 49.4733 83.8813C49.5114 83.896 49.5339 83.9037 49.5415 83.9037C49.8524 84.1306 50.0764 84.4069 50.2128 84.7322C50.3568 85.05 50.4288 85.4015 50.4288 85.7873C50.4288 85.7949 50.425 85.8101 50.4173 85.8329C50.4173 85.8482 50.4173 85.8668 50.4173 85.8896C50.4097 85.92 50.4059 85.95 50.4059 85.9804C50.4059 86.0484 50.4021 86.1507 50.3945 86.2868C50.3873 86.4228 50.3797 86.5627 50.372 86.7067C50.3644 86.8428 50.3568 86.9675 50.3492 87.0811C50.3415 87.1944 50.3377 87.2624 50.3377 87.2852C50.3149 87.4289 50.2581 87.5915 50.167 87.7732C50.0836 87.9473 49.9777 88.1214 49.8485 88.2951C49.7274 88.4615 49.5987 88.6166 49.4619 88.7603C49.3331 88.9044 49.2116 89.0176 49.0981 89.1008C49.0451 89.146 48.9579 89.1955 48.8363 89.2483C48.7152 89.3015 48.5822 89.3544 48.4382 89.4072C48.2942 89.4528 48.154 89.498 48.0176 89.5432C47.8808 89.5813 47.7749 89.6117 47.6991 89.6341H46.7665C46.7055 89.6341 46.6221 89.6303 46.5162 89.6227C46.4099 89.6155 46.3036 89.6041 46.1977 89.5889C46.099 89.5813 46.008 89.5737 45.9245 89.5661C45.8487 89.5584 45.811 89.5546 45.811 89.5546C45.7882 89.5546 45.7467 89.5508 45.6857 89.5432C45.6327 89.536 45.576 89.5284 45.515 89.5208C45.4621 89.5056 45.4129 89.4942 45.3672 89.4866C45.3219 89.4714 45.2914 89.4638 45.2761 89.4638C45.2613 89.4638 45.2194 89.4566 45.1512 89.4414C45.0906 89.4186 45.0411 89.3996 45.0034 89.3844C44.9199 89.3468 44.8327 89.3201 44.7416 89.3049C44.6582 89.2825 44.5709 89.2597 44.4803 89.2369C44.3893 89.2069 44.302 89.1727 44.2186 89.1351C44.1351 89.0894 44.0555 89.0214 43.9797 88.9306C43.9645 88.9082 43.9454 88.8701 43.9229 88.8173C43.9001 88.7641 43.8772 88.7113 43.8548 88.6584C43.8319 88.5976 43.809 88.5448 43.7861 88.4996C43.7713 88.4539 43.7637 88.4201 43.7637 88.3973L43.7065 86.3548C43.7065 86.3244 43.7294 86.2906 43.7751 86.2525C43.8281 86.2073 43.8696 86.1845 43.9001 86.1845ZM61.9052 89.5546C61.8751 89.5546 61.8293 89.5584 61.7688 89.5661C61.7158 89.5661 61.6587 89.5661 61.5981 89.5661C61.5452 89.5661 61.4956 89.5698 61.4503 89.5775C61.405 89.5775 61.3821 89.5775 61.3821 89.5775L61.1089 89.6797L59.71 89.6003H56.7301C56.6161 89.5622 56.5179 89.536 56.4344 89.5208C56.3586 89.5056 56.2676 89.498 56.1613 89.498C56.0778 89.498 56.0134 89.5018 55.9681 89.5094C55.9224 89.517 55.8618 89.5394 55.786 89.5775C55.7102 89.5775 55.5814 89.5737 55.3993 89.5661C55.2248 89.5584 55.0389 89.5546 54.842 89.5546C54.6446 89.5546 54.4553 89.5584 54.2732 89.5661C54.0987 89.5737 53.9813 89.5775 53.9208 89.5775C53.8979 89.5775 53.856 89.5813 53.7954 89.5889C53.7425 89.5965 53.6819 89.6003 53.6137 89.6003C53.5527 89.6079 53.4922 89.6155 53.4316 89.6227C53.3787 89.6303 53.3444 89.6341 53.3291 89.6341C53.3062 89.6417 53.28 89.6455 53.2495 89.6455C53.2266 89.6531 53.2042 89.6569 53.1813 89.6569C53.1661 89.6569 53.1508 89.6569 53.136 89.6569C52.931 89.6569 52.7756 89.6341 52.6697 89.5889C52.571 89.5508 52.4837 89.43 52.4079 89.2255C52.3774 89.2255 52.3622 89.2183 52.3622 89.2031C52.355 89.1955 52.355 89.1841 52.3622 89.1689C52.3622 89.1084 52.3813 89.0442 52.4194 88.9762C52.4647 88.9006 52.5176 88.8321 52.5786 88.7717C52.6468 88.7113 52.715 88.6622 52.7832 88.6242C52.859 88.579 52.931 88.5562 52.9992 88.5562H54.08C54.0949 88.5562 54.1444 88.5148 54.2278 88.4315C54.3113 88.3407 54.3795 88.2727 54.4324 88.227C54.4477 88.2118 54.4629 88.1818 54.4781 88.1362C54.5006 88.0834 54.512 88.0458 54.512 88.0229C54.6031 87.5763 54.656 87.1339 54.6713 86.6953C54.6865 86.2563 54.6942 85.7987 54.6942 85.3221C54.6942 85.2845 54.6942 85.2013 54.6942 85.0724C54.7018 84.9363 54.7056 84.7775 54.7056 84.5958C54.7132 84.4145 54.7204 84.2252 54.728 84.0287C54.7357 83.8242 54.7395 83.6315 54.7395 83.4498C54.7471 83.2682 54.7509 83.1131 54.7509 82.9846C54.7585 82.8486 54.7623 82.7577 54.7623 82.7121V82.0994C54.7623 81.4944 54.7509 80.8969 54.728 80.3066C54.7056 79.7168 54.6942 79.1303 54.6942 78.5476V78.4682C54.6942 78.4458 54.698 78.3891 54.7056 78.2983C54.7132 78.1998 54.7204 78.0976 54.728 77.992C54.7357 77.8859 54.7433 77.7875 54.7509 77.6966C54.7585 77.6058 54.7623 77.5491 54.7623 77.5263C54.77 77.4583 54.7776 77.3413 54.7852 77.1748C54.7928 77.0007 54.8 76.8194 54.8077 76.6301C54.8153 76.4332 54.8229 76.252 54.8305 76.0855C54.8381 75.919 54.842 75.8015 54.842 75.7335C54.8038 75.6203 54.7814 75.5028 54.7738 75.382C54.7661 75.2531 54.7547 75.1322 54.7395 75.0186C54.7242 74.8977 54.6941 74.7841 54.6484 74.6784C54.6031 74.5724 54.5311 74.4815 54.4324 74.4059C54.3871 74.3983 54.3075 74.3907 54.1935 74.3835C54.08 74.3759 53.9585 74.3721 53.8297 74.3721C53.7082 74.3645 53.5909 74.3569 53.4769 74.3493C53.3634 74.3417 53.2876 74.3341 53.2495 74.3265C53.1284 74.3113 52.9954 74.2927 52.8514 74.2698C52.7074 74.2394 52.5748 74.198 52.4533 74.1452C52.3321 74.0844 52.2296 74.0049 52.1462 73.9069C52.0704 73.8084 52.0327 73.6796 52.0327 73.5211L52.078 73.4983C52.0933 73.4907 52.1047 73.4831 52.1123 73.4755C52.1199 73.4679 52.1309 73.4641 52.1462 73.4641C52.3283 73.3584 52.4914 73.29 52.6354 73.26C52.7794 73.222 52.9653 73.2034 53.1927 73.2034H53.2495C53.2724 73.2258 53.2952 73.2448 53.3177 73.26C53.3634 73.29 53.3935 73.3052 53.4087 73.3052C53.7878 73.3356 54.1673 73.3584 54.5463 73.3732C54.9254 73.3808 55.3083 73.3846 55.6949 73.3846C56.0134 73.3846 56.3243 73.3808 56.6276 73.3732C56.9308 73.3656 57.2307 73.3622 57.5263 73.3622H60.0399C60.0704 73.3622 60.1196 73.3584 60.1877 73.3508C60.2559 73.3432 60.3279 73.3394 60.4037 73.3394C60.4872 73.3318 60.5668 73.3242 60.6426 73.3166C60.7184 73.309 60.7756 73.3052 60.8133 73.3052H60.8929H60.9611C60.984 73.3052 61.0369 73.309 61.1204 73.3166C61.2038 73.3242 61.2949 73.3318 61.3935 73.3394C61.4918 73.3394 61.5829 73.3432 61.6663 73.3508C61.7573 73.3584 61.8141 73.3622 61.837 73.3622H63.1906C63.2511 73.3694 63.3384 73.377 63.4523 73.3846C63.5734 73.3922 63.6912 73.3998 63.8047 73.4075C63.9262 73.4151 64.0321 73.4265 64.1232 73.4417C64.2142 73.4489 64.2634 73.4565 64.271 73.4641C64.2786 73.4641 64.3091 73.4755 64.3621 73.4983C64.415 73.5211 64.4722 73.5511 64.5327 73.5891C64.6009 73.6191 64.6653 73.6534 64.7259 73.691C64.7941 73.729 64.8474 73.7628 64.8851 73.7932C64.9609 73.8384 65.0219 73.9483 65.0672 74.1224C65.1202 74.2889 65.1621 74.4739 65.1922 74.6784C65.2227 74.8825 65.2455 75.0832 65.2608 75.2797C65.2832 75.4766 65.3023 75.6279 65.3175 75.7335C65.3175 75.7715 65.3213 75.8396 65.329 75.938C65.3438 76.0289 65.3552 76.1269 65.3629 76.2329C65.3705 76.339 65.3781 76.4408 65.3857 76.5393C65.3933 76.6377 65.3972 76.7058 65.3972 76.7434V77.0501V77.3679C65.359 77.4359 65.3099 77.4811 65.2493 77.5039C65.1884 77.5191 65.124 77.5263 65.0558 77.5263H64.9762C64.8927 77.4735 64.8322 77.4207 64.794 77.3679C64.7564 77.3146 64.7259 77.2618 64.7034 77.209C64.6805 77.1482 64.6577 77.0877 64.6352 77.0273C64.62 76.9669 64.5895 76.9022 64.5442 76.8342C64.5442 76.8266 64.5289 76.8118 64.4984 76.789C64.476 76.7586 64.4493 76.7286 64.4188 76.6982C64.3887 76.6677 64.3582 76.6415 64.3277 76.6187C64.2977 76.5883 64.2786 76.5697 64.271 76.5621C64.1647 76.4108 64.0588 76.2406 63.9525 76.0513C63.8538 75.8548 63.7365 75.6731 63.6001 75.5066C63.5925 75.4914 63.5658 75.4652 63.5205 75.4272C63.4824 75.3896 63.4557 75.3553 63.4409 75.3253C63.4333 75.3101 63.4066 75.2987 63.3613 75.2911C63.3155 75.2759 63.2854 75.2607 63.2702 75.2459C63.1791 75.1851 63.1071 75.117 63.0542 75.0414C63.0008 74.9658 62.9441 74.8939 62.8835 74.8259C62.8301 74.7503 62.7696 74.6784 62.7014 74.6104C62.6332 74.5424 62.5383 74.4853 62.4172 74.4401C62.3562 74.4401 62.2389 74.4363 62.0644 74.4287C61.8975 74.4135 61.7197 74.4021 61.5299 74.3945C61.3402 74.3797 61.1585 74.3683 60.984 74.3607C60.8171 74.3455 60.6998 74.3341 60.6312 74.3265H60.0399C60.0323 74.3265 59.998 74.3227 59.9374 74.3151C59.8845 74.3003 59.8239 74.2889 59.7557 74.2813C59.6871 74.266 59.6228 74.2546 59.5622 74.247C59.5016 74.2318 59.4635 74.2246 59.4483 74.2246H59.278H59.1188C59.0883 74.2246 59.0201 74.2318 58.9138 74.247C58.8151 74.2546 58.7054 74.266 58.5838 74.2813C58.4703 74.2889 58.3602 74.3003 58.2543 74.3151C58.1557 74.3227 58.0951 74.3265 58.0722 74.3265H57.4009C57.3709 74.3265 57.3365 74.3379 57.2989 74.3607C57.2607 74.3759 57.2417 74.3907 57.2417 74.4059V75.8129C57.2345 76.0551 57.2002 76.2858 57.1396 76.5051C57.079 76.7248 57.0485 76.9479 57.0485 77.1748C57.0485 77.5153 57.0638 77.8593 57.0939 78.2075C57.132 78.5476 57.151 78.8958 57.151 79.2515C57.151 79.4932 57.132 79.7391 57.0939 79.9889C57.0638 80.2386 57.0485 80.4959 57.0485 80.7604V80.8398C57.0714 80.8627 57.1015 80.8969 57.1396 80.9421C57.1773 80.9801 57.2116 80.9987 57.2417 80.9987H57.5263H57.8219C57.8372 80.9987 57.871 80.9949 57.9244 80.9873C57.9773 80.9725 58.0341 80.9611 58.0951 80.9535C58.1557 80.9383 58.2086 80.9269 58.2543 80.9193C58.3073 80.9041 58.3378 80.8969 58.345 80.8969H59.3576C59.4106 80.8969 59.5054 80.8931 59.6418 80.8855C59.7858 80.8779 59.9336 80.8741 60.0853 80.8741C60.2445 80.8665 60.3923 80.8589 60.5291 80.8513C60.6655 80.8437 60.7604 80.8398 60.8133 80.8398C60.9272 80.7418 61.0107 80.5977 61.0636 80.4089C61.1165 80.212 61.1699 80.0493 61.2229 79.9208C61.2305 79.898 61.2381 79.8452 61.2457 79.762C61.2605 79.6711 61.2758 79.5765 61.291 79.4784C61.3063 79.38 61.3215 79.2891 61.3364 79.2059C61.3516 79.1151 61.3668 79.0584 61.3821 79.0356C61.3821 79.028 61.3897 79.0094 61.405 78.979C61.4274 78.941 61.4503 78.9072 61.4732 78.8768C61.4956 78.8391 61.5147 78.8049 61.5299 78.7749C61.5528 78.7445 61.5676 78.7255 61.5752 78.7179C61.6057 78.6198 61.6248 78.5138 61.6324 78.4001C61.64 78.2869 61.6587 78.1846 61.6892 78.0938C61.7197 77.9958 61.7688 77.9163 61.837 77.8555C61.9052 77.7951 62.0153 77.7646 62.1669 77.7646C62.3338 77.7646 62.4435 77.8027 62.4968 77.8783C62.5498 77.9539 62.5765 78.0786 62.5765 78.2527C62.5765 78.3131 62.5726 78.3587 62.565 78.3891C62.5574 78.4115 62.5421 78.4648 62.5193 78.5476C62.5193 78.5552 62.5155 78.5742 62.5083 78.6046C62.5006 78.6346 62.4968 78.6689 62.4968 78.7065C62.4968 78.7673 62.5006 78.8239 62.5083 78.8768C62.5155 78.9224 62.5193 78.9562 62.5193 78.979C62.5117 79.0242 62.5045 79.1189 62.4968 79.2625C62.4892 79.4066 62.4778 79.5727 62.4625 79.762C62.4473 79.9513 62.432 80.1553 62.4172 80.3746C62.402 80.5868 62.3867 80.7908 62.3715 80.9873C62.3562 81.1766 62.3414 81.3431 62.3261 81.4868C62.3185 81.6304 62.3109 81.7289 62.3033 81.7817C62.3033 81.7969 62.3071 81.8687 62.3147 81.9976C62.3223 82.1184 62.3261 82.2431 62.3261 82.372C62.3261 82.4324 62.3185 82.5004 62.3033 82.576C62.288 82.6441 62.2766 82.6897 62.2694 82.7121C62.2694 82.7121 62.2618 82.7311 62.2465 82.7691C62.2389 82.8067 62.2275 82.8524 62.2122 82.9052C62.2046 82.9504 62.1936 82.996 62.1783 83.0413C62.1707 83.0793 62.1669 83.1055 62.1669 83.1207C62.1669 83.1435 62.1707 83.1963 62.1783 83.2796C62.186 83.3628 62.1936 83.4537 62.2008 83.5521C62.216 83.6429 62.2275 83.7296 62.2351 83.8128C62.2427 83.8884 62.2465 83.9379 62.2465 83.9607C62.2465 83.9907 62.2465 84.0363 62.2465 84.0968C62.2541 84.1496 62.258 84.2062 62.258 84.267C62.258 84.3199 62.258 84.3727 62.258 84.4259C62.2656 84.4787 62.2694 84.5201 62.2694 84.5506C62.2694 84.679 62.2541 84.7965 62.2237 84.9025C62.2008 85.0082 62.1478 85.1256 62.0644 85.2541C62.0568 85.2921 62.0191 85.3335 61.9509 85.3787C61.8899 85.4168 61.8522 85.4358 61.837 85.4358C61.8217 85.4358 61.7802 85.4168 61.712 85.3787C61.6438 85.3335 61.5981 85.2921 61.5752 85.2541C61.4465 85.148 61.3554 85.0006 61.3025 84.8117C61.2567 84.6224 61.2267 84.4183 61.2114 84.199C61.1962 83.9717 61.1885 83.741 61.1885 83.5065C61.1885 83.272 61.1733 83.0565 61.1432 82.86C61.1204 82.6555 61.0712 82.4852 60.9954 82.3491C60.9196 82.2131 60.7981 82.1298 60.6312 82.0994C60.5706 82.1146 60.4757 82.1222 60.347 82.1222C60.2182 82.1222 60.0776 82.1222 59.926 82.1222C59.7668 82.1222 59.6151 82.1222 59.4711 82.1222C59.3348 82.1222 59.2437 82.1146 59.1984 82.0994C59.1603 82.0994 59.0997 82.0956 59.0163 82.088C58.9328 82.0804 58.8456 82.077 58.7545 82.077C58.6711 82.0694 58.5877 82.0618 58.5042 82.0542C58.4284 82.0466 58.3755 82.0428 58.345 82.0428C58.3378 82.02 58.3073 81.9938 58.2543 81.9634C58.201 81.9329 58.1671 81.9182 58.1518 81.9182H58.0379C57.841 81.9182 57.6512 81.9672 57.4695 82.0656C57.295 82.1565 57.1887 82.3039 57.151 82.508C57.1434 82.5608 57.1244 82.6669 57.0939 82.8258C57.0714 82.977 57.0447 83.1435 57.0142 83.3252C56.9918 83.5065 56.9651 83.6844 56.9346 83.8584C56.9122 84.0249 56.8969 84.1496 56.8893 84.2328V84.3008V84.3803C56.8893 84.4407 56.8931 84.5391 56.9007 84.6752C56.9084 84.8117 56.916 84.9591 56.9232 85.118C56.9308 85.2693 56.9384 85.4167 56.9461 85.5604C56.9613 85.6965 56.9689 85.7911 56.9689 85.8444C57.0066 85.9048 57.0295 85.95 57.0371 85.9804C57.0447 86.0104 57.0485 86.0446 57.0485 86.0827C57.0485 86.3776 57.0333 86.6649 57.0028 86.9451C56.9727 87.2248 56.9575 87.5197 56.9575 87.8298C56.9575 87.8603 56.9575 87.9245 56.9575 88.0229C56.9651 88.1214 56.9689 88.1894 56.9689 88.227C56.9765 88.2422 56.9956 88.2689 57.0257 88.3065C57.0562 88.3369 57.0862 88.3707 57.1167 88.4087C57.1549 88.4391 57.1925 88.4691 57.2307 88.4996C57.2684 88.5296 57.295 88.5486 57.3103 88.5562C57.3175 88.5714 57.3518 88.5828 57.4124 88.5904C57.4805 88.5976 57.5564 88.6052 57.6398 88.6128C57.7232 88.6128 57.8029 88.6204 57.8787 88.6356C57.9621 88.6432 58.0265 88.6508 58.0722 88.6584C58.1633 88.6584 58.3187 88.6622 58.5385 88.6699C58.766 88.677 59.0048 88.6846 59.2551 88.6922C59.5131 88.6998 59.7519 88.7075 59.9717 88.7151C60.1992 88.7151 60.3584 88.7151 60.4495 88.7151C60.5405 88.7531 60.6312 88.7793 60.7222 88.7945C60.8209 88.8097 60.9158 88.8173 61.0069 88.8173H61.3253H61.837C61.8446 88.8173 61.8713 88.8135 61.9166 88.8059C61.9619 88.7907 62.0115 88.7793 62.0644 88.7717C62.125 88.7565 62.1783 88.7455 62.2237 88.7379C62.2694 88.7227 62.2957 88.7151 62.3033 88.7151H64.4645C64.548 88.6922 64.6276 88.6508 64.7034 88.5904C64.7792 88.522 64.8512 88.4501 64.9194 88.3745C64.9876 88.2913 65.0482 88.208 65.1015 88.1248C65.1545 88.0344 65.1998 87.9549 65.2379 87.8869C65.2608 87.8641 65.2908 87.8108 65.329 87.728C65.3743 87.6448 65.4162 87.5577 65.4539 87.4669C65.4997 87.3684 65.5412 87.2776 65.5793 87.1944C65.617 87.1111 65.6398 87.0621 65.6475 87.0469C65.6623 87.0245 65.6966 86.9789 65.7495 86.9108C65.8029 86.8428 65.8292 86.801 65.8292 86.7862C65.8368 86.771 65.852 86.7291 65.8749 86.6611C65.8973 86.5931 65.9088 86.5517 65.9088 86.5365C65.9164 86.5289 65.9355 86.506 65.966 86.4684C66.0037 86.4304 66.0418 86.3928 66.0795 86.3548C66.1176 86.3172 66.1515 86.2791 66.182 86.2411C66.212 86.2035 66.2311 86.1769 66.2387 86.1621C66.2463 86.1545 66.2616 86.1317 66.2845 86.0937C66.3145 86.0484 66.3412 85.9994 66.3641 85.9462C66.3941 85.8858 66.417 85.8329 66.4323 85.7873C66.4547 85.7345 66.47 85.7003 66.4776 85.6855C66.4928 85.6551 66.5343 85.6099 66.6029 85.549C66.6788 85.4886 66.7203 85.451 66.7279 85.4358C66.7431 85.4206 66.7618 85.4091 66.7846 85.4015C66.8075 85.3863 66.8266 85.3715 66.8414 85.3563C66.8643 85.3411 66.8871 85.3297 66.91 85.3221C66.9401 85.3373 66.9858 85.3753 67.0464 85.4358C67.1069 85.4962 67.1527 85.5414 67.1828 85.5718V85.6284C67.1828 85.7193 67.1675 85.8063 67.1374 85.8896C67.1146 85.9728 67.1031 86.056 67.1031 86.1393C67.1031 86.2449 67.1146 86.3396 67.1374 86.4228C67.1675 86.4984 67.1828 86.5893 67.1828 86.6953V86.7862C67.1828 86.8086 67.1675 86.8504 67.1374 86.9108C67.1146 86.9713 67.1031 87.0169 67.1031 87.0469V88.3745C67.0955 88.4653 67.0841 88.5828 67.0693 88.7265C67.054 88.8625 67.0235 88.9948 66.9782 89.1237C66.9325 89.2445 66.8681 89.3506 66.7846 89.4414C66.7012 89.5322 66.5915 89.5775 66.4547 89.5775H66.398C66.3751 89.5698 66.3374 89.5622 66.2845 89.5546C66.2311 89.547 66.1781 89.5394 66.1252 89.5322C66.0718 89.5246 66.0227 89.517 65.977 89.5094C65.9393 89.5018 65.9164 89.498 65.9088 89.498L65.8406 89.4528C65.7953 89.4224 65.7724 89.4034 65.7724 89.3958H65.7042H65.6475C65.3819 89.4866 65.1316 89.5322 64.8965 89.5322C64.6615 89.5322 64.415 89.547 64.1575 89.5775C64.1346 89.5775 64.0927 89.5813 64.0321 89.5889C63.9716 89.5965 63.9034 89.6041 63.8276 89.6117C63.7594 89.6265 63.6946 89.6417 63.634 89.6569C63.5734 89.6721 63.5353 89.6835 63.5205 89.6911H63.4633C63.3269 89.6911 63.1982 89.6721 63.0766 89.6341C62.9631 89.5965 62.8301 89.5775 62.6785 89.5775C62.6637 89.5775 62.6218 89.5775 62.5536 89.5775C62.493 89.5698 62.421 89.5661 62.3376 89.5661C62.2618 89.5661 62.1821 89.5661 62.0987 89.5661C62.0229 89.5584 61.9585 89.5546 61.9052 89.5546ZM74.8715 80.5449C74.9325 80.5145 74.974 80.4617 74.9969 80.386C75.0197 80.3104 75.0308 80.2348 75.0308 80.1591C75.0308 80.0003 74.9702 79.8904 74.8491 79.83C74.7351 79.762 74.6064 79.7129 74.4624 79.6825C74.3256 79.6449 74.1968 79.6069 74.0757 79.5689C73.9618 79.5237 73.905 79.4442 73.905 79.331C73.905 79.2929 73.9203 79.2625 73.9503 79.2401C73.9808 79.2097 74.0185 79.1869 74.0643 79.1721C74.1096 79.1493 74.1553 79.1303 74.2006 79.1151C74.2536 79.0998 74.2993 79.0851 74.337 79.0698C74.3751 79.0546 74.4357 79.0394 74.5191 79.0242C74.6102 79.0094 74.6631 79.0018 74.6784 79.0018H76.68C76.8168 78.941 76.9493 78.9072 77.0781 78.8996C77.2073 78.8844 77.336 78.8768 77.4648 78.8768C77.5635 78.8768 77.6545 78.8806 77.738 78.8882C77.829 78.8882 77.9048 78.8996 77.9654 78.9224C78.0336 78.9448 78.0869 78.9866 78.1246 79.047C78.1628 79.1075 78.1814 79.1945 78.1814 79.3082C78.1814 79.467 78.1361 79.5879 78.045 79.6711C77.9616 79.7544 77.8557 79.8186 77.7265 79.8642C77.5978 79.9018 77.4614 79.9322 77.317 79.9551C77.1806 79.9775 77.0595 80.0041 76.9532 80.0345C76.6118 80.1553 76.3085 80.318 76.0434 80.5221C75.7855 80.719 75.539 80.9611 75.3039 81.2484C75.2811 81.2713 75.2396 81.3203 75.179 81.3959C75.118 81.4639 75.0498 81.5396 74.974 81.6228C74.9058 81.706 74.8414 81.7855 74.7809 81.8611C74.7199 81.9291 74.6784 81.9748 74.6555 81.9976C74.6254 82.0352 74.5911 82.0804 74.553 82.1336C74.5153 82.1865 74.47 82.2321 74.4166 82.2697C74.318 82.3529 74.2235 82.459 74.1325 82.5875C74.0414 82.7159 73.9656 82.841 73.905 82.9618C73.8745 83.0151 73.8478 83.0641 73.8254 83.1093C73.8101 83.1549 73.8025 83.2153 73.8025 83.291C73.8025 83.4498 73.844 83.6163 73.9275 83.7904C74.0109 83.9641 74.0905 84.1267 74.1663 84.278C74.1968 84.3236 74.2349 84.3917 74.2803 84.4825C74.3256 84.5658 74.3713 84.649 74.4166 84.7322C74.4624 84.8155 74.5001 84.8911 74.5306 84.9591C74.5683 85.0272 74.5911 85.0686 74.5988 85.0838C74.6064 85.099 74.6326 85.1442 74.6784 85.2203C74.7313 85.2883 74.7881 85.3677 74.8491 85.4582C74.9096 85.5414 74.9626 85.6208 75.0083 85.6965C75.0613 85.7721 75.0956 85.8215 75.1104 85.8444L75.3836 86.3548C75.4746 86.5665 75.5695 86.7786 75.6677 86.9903C75.7664 87.1944 75.8727 87.3951 75.9862 87.5915C76.1002 87.7808 76.2289 87.9625 76.3729 88.1362C76.5173 88.3103 76.6838 88.4767 76.8735 88.6356C76.9417 88.6884 77.029 88.7341 77.1353 88.7717C77.2412 88.8021 77.3437 88.8359 77.4423 88.8739C77.5482 88.9115 77.6355 88.9648 77.7036 89.0328C77.7795 89.0932 77.8176 89.1841 77.8176 89.3049C77.8176 89.4566 77.7684 89.5508 77.6698 89.5889C77.5787 89.6341 77.4724 89.6569 77.3513 89.6569C77.2831 89.6569 77.2111 89.6531 77.1353 89.6455C77.0671 89.6379 77.0061 89.6341 76.9532 89.6341C76.9227 89.6493 76.8469 89.6607 76.7257 89.6683C76.6042 89.6835 76.4716 89.6983 76.3276 89.7135C76.1912 89.7287 76.062 89.7401 75.9409 89.7477C75.8194 89.7553 75.7436 89.7591 75.7135 89.7591H75.6563C75.6491 89.7591 75.6224 89.7553 75.5767 89.7477C75.5314 89.7401 75.4822 89.7287 75.4289 89.7135C75.3836 89.6983 75.3344 89.6835 75.2811 89.6683C75.2357 89.6607 75.2091 89.6493 75.2014 89.6341C75.1637 89.6341 75.0841 89.6303 74.9626 89.6227C74.8491 89.6155 74.7237 89.6079 74.5873 89.6003C74.4586 89.6003 74.337 89.5965 74.2235 89.5889C74.1096 89.5813 74.0376 89.5775 74.0071 89.5775C73.977 89.5775 73.9126 89.5698 73.814 89.5546C73.7229 89.5322 73.6623 89.5132 73.6318 89.498V89.4186C73.6318 89.2977 73.6585 89.2145 73.7115 89.1689C73.772 89.1237 73.833 89.0856 73.8936 89.0556C73.9618 89.0176 74.0223 88.9724 74.0757 88.9191C74.1363 88.8663 74.1663 88.7717 74.1663 88.6356C74.1663 88.56 74.1439 88.4391 74.0981 88.2727C74.0528 88.1062 73.9885 87.9245 73.905 87.728C73.8292 87.5235 73.742 87.3156 73.6433 87.1039C73.5522 86.8918 73.4535 86.6991 73.3477 86.5251C73.249 86.351 73.1541 86.2073 73.063 86.0937C72.9724 85.9804 72.8928 85.9238 72.8242 85.9238C72.6954 85.9238 72.5891 85.9614 72.5057 86.037C72.4227 86.1051 72.3502 86.1921 72.2897 86.2982C72.2291 86.3966 72.1762 86.5022 72.1304 86.6159C72.0851 86.7291 72.0394 86.8276 71.994 86.9108C71.9712 86.9484 71.9144 87.0393 71.8234 87.1829C71.7323 87.3194 71.6302 87.4707 71.5163 87.6372C71.41 87.8037 71.3079 87.9587 71.2093 88.1024C71.1182 88.246 71.0614 88.3331 71.0386 88.3631C71.0233 88.3707 71.0047 88.3973 70.9818 88.4425C70.9666 88.4806 70.9513 88.5072 70.9361 88.522V88.6014C70.9361 88.7075 70.9818 88.7831 71.0729 88.8287C71.1639 88.8739 71.2698 88.9153 71.3914 88.9534C71.5125 88.9838 71.6341 89.0252 71.7552 89.078C71.8839 89.1236 71.9826 89.1993 72.0508 89.3049C72.0508 89.4034 72.0245 89.4714 71.9712 89.5094C71.9259 89.5394 71.8691 89.5622 71.8005 89.5775H68.616C68.5554 89.5775 68.5173 89.5546 68.5021 89.5094C68.4944 89.4566 68.491 89.4186 68.491 89.3958V89.3049C68.5817 89.1993 68.6842 89.1122 68.7981 89.0442C68.9192 88.9762 69.0408 88.9153 69.1619 88.8625C69.2907 88.8097 69.4198 88.7603 69.5486 88.7151C69.6773 88.6622 69.7989 88.5976 69.9124 88.522C69.9429 88.492 70.0035 88.4353 70.0945 88.3521C70.1856 88.2613 70.2805 88.1666 70.3791 88.0682C70.485 87.9697 70.5837 87.8755 70.6748 87.7846C70.7734 87.6938 70.8416 87.6296 70.8793 87.5915C71.0767 87.3646 71.2436 87.1301 71.3799 86.888C71.5239 86.6383 71.6641 86.3852 71.8005 86.1279C71.8157 86.1051 71.8501 86.0713 71.903 86.0256C71.9559 85.9728 71.9864 85.9386 71.994 85.9238C72.0169 85.8934 72.047 85.8515 72.0851 85.7987C72.1304 85.7383 72.1685 85.6817 72.1986 85.6284C72.2367 85.5756 72.2672 85.5304 72.2897 85.4924C72.3202 85.4472 72.3354 85.4206 72.3354 85.4129C72.3354 85.4129 72.3354 85.3939 72.3354 85.3563C72.343 85.3107 72.3469 85.2617 72.3469 85.2089C72.3541 85.1556 72.3579 85.1066 72.3579 85.0614C72.3655 85.0082 72.3693 84.9706 72.3693 84.9477C72.3693 84.9249 72.3655 84.8911 72.3579 84.8455C72.3579 84.8003 72.3541 84.7508 72.3469 84.698C72.3469 84.6452 72.343 84.5958 72.3354 84.5506C72.3354 84.4977 72.3354 84.4635 72.3354 84.4483C72.1228 84.3198 71.9636 84.1724 71.8577 84.0059C71.7514 83.8318 71.6527 83.6353 71.5616 83.4156C71.5544 83.3932 71.5316 83.3514 71.4934 83.291C71.4557 83.2306 71.4176 83.1701 71.3799 83.1093C71.3418 83.0413 71.3041 82.9808 71.266 82.928C71.2359 82.8672 71.2169 82.8334 71.2093 82.8258C71.1788 82.7653 71.1334 82.6707 71.0729 82.5422C71.0195 82.4134 70.9742 82.3225 70.9361 82.2697C70.9213 82.2621 70.906 82.2393 70.8908 82.2017C70.8755 82.1565 70.8603 82.1108 70.8454 82.0656C70.8302 82.02 70.8149 81.9748 70.7997 81.9291C70.7921 81.8839 70.7845 81.8535 70.7768 81.8387L70.7544 81.8159C70.7468 81.8083 70.7353 81.8045 70.7201 81.8045C70.7125 81.7969 70.7048 81.7855 70.6972 81.7703C70.6671 81.7479 70.6404 81.7251 70.6176 81.7022C70.466 81.5134 70.3448 81.3165 70.2538 81.1124C70.1703 80.9079 70.0568 80.719 69.9124 80.5449C69.8141 80.4313 69.7116 80.3332 69.6053 80.25C69.4995 80.1591 69.3893 80.0759 69.2758 80.0003C69.1695 79.9246 69.0594 79.849 68.9459 79.7734C68.832 79.6977 68.7223 79.6107 68.616 79.5122C68.5554 79.4746 68.5173 79.429 68.5021 79.3762C68.4944 79.3158 68.491 79.2549 68.491 79.1945C68.491 79.1113 68.5097 79.0584 68.5478 79.0356C68.5855 79.0132 68.6465 79.0018 68.7295 79.0018H68.7752C68.7752 79.0018 68.7905 79.0056 68.8205 79.0132C68.8587 79.0204 68.8964 79.028 68.9345 79.0356C68.9798 79.0432 69.0179 79.0508 69.048 79.0584C69.0861 79.066 69.1128 79.0698 69.1276 79.0698H69.1848C69.6701 79.0698 70.1475 79.0546 70.6176 79.0242C71.0953 78.9942 71.5731 78.979 72.0508 78.979C72.2329 78.979 72.3655 79.0018 72.4489 79.047C72.54 79.0851 72.5853 79.1907 72.5853 79.3648C72.5853 79.516 72.5552 79.6221 72.4947 79.6825C72.4337 79.7353 72.3655 79.7772 72.2897 79.8072C72.2139 79.8376 72.1457 79.8756 72.0851 79.9208C72.0245 79.966 71.994 80.0569 71.994 80.1934C71.994 80.2538 72.0169 80.3332 72.0622 80.4313C72.108 80.5221 72.1457 80.5868 72.1762 80.6244C72.1986 80.6624 72.2482 80.7566 72.324 80.9079C72.4074 81.052 72.4947 81.2108 72.5853 81.3845C72.684 81.551 72.775 81.706 72.8585 81.8497C72.9419 81.9938 72.9949 82.0842 73.0177 82.1222C73.0707 82.1979 73.1164 82.2583 73.1541 82.3039C73.1998 82.3491 73.2528 82.372 73.3133 82.372C73.4044 82.372 73.5069 82.3339 73.6204 82.2583C73.742 82.1751 73.8974 82.0618 74.0867 81.9182C74.1625 81.8573 74.2383 81.7631 74.3146 81.6342C74.3976 81.4982 74.4734 81.3621 74.542 81.2256C74.6102 81.082 74.6708 80.9459 74.7237 80.8175C74.7847 80.6886 74.8338 80.5977 74.8715 80.5449ZM83.243 84.5277C83.2659 84.5958 83.3112 84.6528 83.3794 84.698C83.4552 84.736 83.5386 84.7622 83.6297 84.7775C83.7207 84.7927 83.808 84.8041 83.8914 84.8117C83.9825 84.8117 84.0583 84.8117 84.1189 84.8117H84.1985C84.2213 84.7736 84.2705 84.7322 84.3463 84.6866C84.4221 84.6338 84.4602 84.6034 84.4602 84.5958C84.475 84.5958 84.5322 84.5848 84.6305 84.562C84.7368 84.5391 84.7973 84.5277 84.8126 84.5277C84.8278 84.5277 84.8545 84.5163 84.8922 84.4939C84.9303 84.4635 84.9566 84.4445 84.9718 84.4369C85.0023 84.4069 85.0629 84.3613 85.154 84.3008C85.2526 84.2328 85.317 84.1914 85.3471 84.1762C85.3852 84.1458 85.4381 84.1006 85.5063 84.0401C85.5745 83.9717 85.6431 83.9075 85.7113 83.847C85.7795 83.779 85.8363 83.7224 85.882 83.6768C85.9349 83.6239 85.965 83.5935 85.9726 83.5859C85.9803 83.5635 85.9917 83.5179 86.0069 83.4498C86.0298 83.3742 86.0523 83.2986 86.0751 83.2229C86.098 83.1397 86.1204 83.0641 86.1433 82.996C86.1662 82.9204 86.1814 82.8748 86.1891 82.86C86.1967 82.8448 86.2077 82.8029 86.2229 82.7349C86.2458 82.6669 86.2687 82.5913 86.2911 82.508C86.314 82.4248 86.3331 82.3491 86.3483 82.2811C86.3708 82.2131 86.3822 82.1713 86.3822 82.1565C86.3974 82.1565 86.4051 82.126 86.4051 82.0656C86.4051 82.0048 86.4051 81.9558 86.4051 81.9182V81.7593C86.4051 81.6984 86.3974 81.6532 86.3822 81.6228C86.3669 81.5928 86.3407 81.5358 86.3026 81.4525C86.2949 81.4377 86.2835 81.4073 86.2687 81.3621C86.2534 81.3089 86.2382 81.256 86.2229 81.2032C86.2077 81.1424 86.1929 81.0896 86.1776 81.0444C86.1624 80.9911 86.1548 80.9573 86.1548 80.9421C86.1395 80.9269 86.1133 80.8931 86.0751 80.8398C86.0446 80.787 86.0146 80.7342 85.9841 80.681C85.954 80.6206 85.9235 80.5677 85.893 80.5221C85.8706 80.4693 85.8591 80.4389 85.8591 80.4313C85.8439 80.3937 85.8058 80.3446 85.7452 80.2838C85.6923 80.2234 85.6355 80.1667 85.5745 80.1139C85.5216 80.0531 85.4686 80.0041 85.4153 79.966C85.37 79.9208 85.3471 79.898 85.3471 79.898C85.3323 79.8904 85.3018 79.8794 85.256 79.8642C85.2183 79.849 85.1692 79.83 85.1082 79.8072C85.0553 79.7848 84.9985 79.7658 84.938 79.7506C84.8846 79.7277 84.8431 79.7129 84.8126 79.7053C84.7749 79.6901 84.7253 79.6749 84.6648 79.6597C84.6042 79.6373 84.5398 79.6183 84.4712 79.6031C84.403 79.5879 84.3425 79.5765 84.2895 79.5689C84.2362 79.5541 84.2061 79.5465 84.1985 79.5465H83.8914C83.7474 79.5465 83.6259 79.5579 83.5272 79.5803C83.4365 79.5955 83.3417 79.6635 83.243 79.7848C83.1901 80.0117 83.1481 80.2234 83.1181 80.4203C83.0952 80.6091 83.0761 80.7984 83.0609 80.9873C83.0533 81.169 83.0461 81.3545 83.0384 81.5434C83.0384 81.7327 83.0384 81.9367 83.0384 82.1565C83.0384 82.3758 83.0384 82.5837 83.0384 82.7806C83.0461 82.9694 83.0533 83.1587 83.0609 83.3476C83.0761 83.5369 83.0952 83.7262 83.1181 83.9151C83.1481 84.1044 83.1901 84.3084 83.243 84.5277ZM79.6942 89.1803C79.6942 89.1122 79.6981 89.0594 79.7057 89.0214C79.7209 88.9838 79.7624 88.9344 79.8306 88.8739C79.8611 88.8587 79.9217 88.8321 80.0127 88.7945C80.1038 88.7565 80.1567 88.7303 80.172 88.7151C80.2025 88.6998 80.2592 88.6884 80.3427 88.6808C80.4261 88.666 80.5133 88.6546 80.6044 88.647C80.7027 88.6318 80.7937 88.6242 80.8772 88.6242C80.9682 88.6166 81.0326 88.6128 81.0707 88.6128L81.1275 88.5334V87.1263C81.1427 87.0659 81.158 87.0093 81.1728 86.956C81.188 86.9108 81.1995 86.8728 81.2071 86.8428C81.2223 86.8048 81.23 86.7824 81.23 86.7748C81.23 86.7368 81.2261 86.6573 81.2185 86.5365C81.2109 86.4076 81.2071 86.283 81.2071 86.1621C81.2071 86.1013 81.2071 86.0484 81.2071 86.0032C81.2071 85.9576 81.2147 85.9238 81.23 85.901C81.23 85.901 81.2338 85.8858 81.241 85.8553C81.2486 85.8253 81.2524 85.7911 81.2524 85.7535C81.26 85.7155 81.2676 85.6817 81.2753 85.6513C81.2829 85.6132 81.2867 85.587 81.2867 85.5718V85.4358C81.2867 85.3525 81.2829 85.2845 81.2753 85.2313C81.2753 85.1784 81.26 85.1104 81.23 85.0272C81.23 84.9968 81.2261 84.9363 81.2185 84.8455C81.2185 84.7546 81.2147 84.6604 81.2071 84.562C81.2071 84.4559 81.2033 84.3613 81.1957 84.278C81.1957 84.1876 81.1957 84.1268 81.1957 84.0968C81.1957 83.5673 81.2109 83.0527 81.241 82.5532C81.2715 82.0542 81.2867 81.5434 81.2867 81.0215V80.7038C81.2867 80.6662 81.2791 80.6053 81.2638 80.5221C81.2562 80.4313 81.241 80.337 81.2185 80.2386C81.2033 80.1401 81.1842 80.0493 81.1618 79.966C81.1465 79.8828 81.1351 79.8224 81.1275 79.7848C81.0593 79.6787 80.9682 79.6107 80.8543 79.5803C80.7484 79.5427 80.6307 79.5198 80.5019 79.5122C80.3804 79.497 80.2592 79.4784 80.1381 79.4556C80.0165 79.4328 79.9141 79.3762 79.8306 79.2853C79.8234 79.2777 79.8196 79.2663 79.8196 79.2515C79.8196 79.2287 79.8196 79.2097 79.8196 79.1945C79.8196 79.1341 79.8535 79.0775 79.9217 79.0242C79.9899 78.9714 80.0733 78.9262 80.172 78.8882C80.2707 78.8506 80.3655 78.8201 80.4562 78.7973C80.5549 78.7749 80.6345 78.7635 80.695 78.7635C80.8543 78.7635 80.9987 78.7787 81.1275 78.8087C81.2562 78.8315 81.4078 78.8429 81.5823 78.8429C82.0296 78.8429 82.462 78.8315 82.8792 78.8087C83.3036 78.7787 83.7436 78.7635 84.1985 78.7635H85.3471C85.3547 78.7711 85.3776 78.7821 85.4153 78.7973C85.4534 78.8125 85.4949 78.8277 85.5406 78.8429C85.586 78.8582 85.6279 78.8768 85.6656 78.8996C85.7037 78.9148 85.7261 78.9262 85.7338 78.9338C85.7566 78.9338 85.7909 78.9376 85.8363 78.9448C85.8892 78.9524 85.9426 78.9638 85.9955 78.979C86.0485 78.9866 86.0942 78.998 86.1319 79.0132C86.1776 79.0204 86.2039 79.028 86.2115 79.0356C86.2191 79.0432 86.2382 79.0622 86.2687 79.0927C86.3064 79.1151 86.3445 79.1417 86.3822 79.1721C86.4279 79.1945 86.4656 79.2211 86.4961 79.2515C86.5338 79.2739 86.5567 79.2853 86.5643 79.2853C86.5719 79.2853 86.5944 79.2929 86.6325 79.3082C86.6778 79.3234 86.7236 79.342 86.7689 79.3648C86.8222 79.3876 86.8676 79.4104 86.9057 79.4328C86.951 79.448 86.9739 79.4594 86.9739 79.467C87.0497 79.497 87.1064 79.5313 87.1441 79.5689C87.1899 79.5993 87.2276 79.6335 87.2581 79.6711C87.2962 79.7091 87.3301 79.7544 87.3605 79.8072C87.3982 79.8604 87.4402 79.917 87.4855 79.9775C87.7663 80.2876 87.9556 80.6206 88.0543 80.9763C88.1606 81.3317 88.2135 81.706 88.2135 82.0994C88.2135 82.1598 88.2135 82.2393 88.2135 82.3377C88.2135 82.4362 88.2097 82.4928 88.2021 82.508C88.2021 82.5232 88.1945 82.557 88.1792 82.6103C88.1644 82.6631 88.1492 82.7197 88.1339 82.7806C88.1187 82.8334 88.0996 82.8862 88.0772 82.9394C88.0619 82.9846 88.0505 83.0113 88.0429 83.0189C87.9365 83.4046 87.7735 83.7448 87.5537 84.0401C87.3415 84.3351 87.0874 84.5848 86.7917 84.7889C86.4961 84.9853 86.17 85.137 85.8134 85.2427C85.4572 85.3487 85.0858 85.4015 84.6991 85.4015C84.4788 85.4015 84.259 85.3677 84.0392 85.2993C83.827 85.2313 83.6182 85.1975 83.4137 85.1975H83.3226C83.2849 85.1975 83.2468 85.2051 83.2087 85.2203C83.1786 85.2351 83.1557 85.2693 83.1405 85.3221C83.1028 85.5038 83.0799 85.7079 83.0723 85.9348C83.0647 86.1545 83.0609 86.3662 83.0609 86.5703V87.0469V88.1818C83.0609 88.3179 83.099 88.4163 83.1748 88.4768C83.2506 88.5296 83.3417 88.5676 83.4476 88.5904C83.5615 88.6128 83.6826 88.628 83.8118 88.6356C83.9405 88.6356 84.0583 88.647 84.1642 88.6699C84.2781 88.6922 84.373 88.7379 84.4488 88.8059C84.5246 88.8663 84.5623 88.9648 84.5623 89.1008C84.5623 89.2749 84.5017 89.3996 84.3806 89.4752C84.2667 89.5432 84.115 89.5775 83.9253 89.5775H80.0127C79.8916 89.5775 79.8082 89.536 79.7624 89.4528C79.7171 89.362 79.6942 89.2711 79.6942 89.1803Z" fill="#F5F5F5"/>
<path d="M96.5647 33.8028V89.1549H101.224V33.8028H96.5647Z" fill="#F5F5F5"/>
<path d="M100.93 22.341V49.2368C100.93 50.3149 100.054 51.1889 98.9733 51.1889C97.8927 51.1889 97.0166 50.3149 97.0166 49.2368V22.341C97.0166 21.2629 97.8927 20.3889 98.9733 20.3889C100.054 20.3889 100.93 21.2629 100.93 22.341Z" fill="#F5F5F5"/>
<path d="M102.234 35.9494V42.5692C102.234 43.736 101.286 44.6818 100.117 44.6818H97.8298C96.6602 44.6818 95.7121 43.736 95.7121 42.5692V35.9494C95.7121 34.7826 96.6602 33.8368 97.8298 33.8368H100.117C101.286 33.8368 102.234 34.7826 102.234 35.9494Z" fill="#F5F5F5"/>
<path d="M98.9733 21.2564V14.9662V10.2648C98.9733 9.22796 98.6718 8.21333 98.1051 7.34396L98.02 7.2128C95.871 3.91477 90.9877 4.04766 89.0221 7.45766C88.5621 8.25596 88.3199 9.16065 88.3199 10.0815V14.9662V20.3825C88.3199 22.1836 87.1234 23.7665 85.3873 24.2613C85.3149 24.282 85.2378 24.282 85.165 24.2613L84.323 24.0212C83.0855 23.6685 82.2325 22.5402 82.2325 21.2564" stroke="#F5F5F5" stroke-width="2"/>
<path d="M83.9719 22.7746C83.9719 22.6548 84.0693 22.5577 84.1892 22.5577C84.3095 22.5577 84.4065 22.6548 84.4065 22.7746V54.2476L84.2824 53.8732L84.0706 54.0845L83.9719 53.662V51.9718V22.7746Z" fill="#F5F5F5"/>
<path d="M84.4645 64.7992L84.8838 64.8659L84.9558 64.4485L84.9028 64.0593L84.661 64.2355L84.6288 63.8028L84.5335 64.4117L84.4645 64.7992Z" fill="#F5F5F5"/>
<path d="M84.624 22.7746C84.624 22.6548 84.5267 22.5577 84.4066 22.5577C84.2865 22.5577 84.1892 22.6548 84.1892 22.7746V25.3774C84.1892 25.4972 84.2865 25.5943 84.4066 25.5943C84.5267 25.5943 84.624 25.4972 84.624 25.3774V22.7746Z" fill="#F5F5F5"/>
<path d="M85.9285 22.7746C85.9285 22.6548 85.8311 22.5577 85.7111 22.5577C85.591 22.5577 85.4937 22.6548 85.4937 22.7746V25.3774C85.4937 25.4972 85.591 25.5943 85.7111 25.5943C85.8311 25.5943 85.9285 25.4972 85.9285 25.3774V22.7746Z" fill="#F5F5F5"/>
<path d="M85.2761 22.5577H85.2761C85.1561 22.5577 85.0587 22.6548 85.0587 22.7746V25.3774C85.0587 25.4972 85.1561 25.5943 85.2761 25.5943H85.2761C85.3962 25.5943 85.4935 25.4972 85.4935 25.3774V22.7746C85.4935 22.6548 85.3962 22.5577 85.2761 22.5577Z" fill="#F5F5F5"/>
<path d="M84.8416 22.5577H84.8416C84.7215 22.5577 84.6241 22.6548 84.6241 22.7746V25.3774C84.6241 25.4972 84.7215 25.5943 84.8416 25.5943H84.8416C84.9616 25.5943 85.059 25.4972 85.059 25.3774V22.7746C85.059 22.6548 84.9616 22.5577 84.8416 22.5577Z" fill="#F5F5F5"/>
<path d="M84.4064 77.493H83.9719L83.5369 78.7944H84.8414L84.4064 77.493Z" fill="#F5F5F5"/>
<path d="M79.6329 39.4761C79.6329 40.1948 79.4063 40.5605 84.6195 40.7775C90.0597 40.5605 89.6159 40.1948 89.6159 39.4761C89.6159 38.6791 89.8425 38.3915 84.6195 38.1747C79.1793 38.3915 79.6329 38.7573 79.6329 39.4761Z" fill="#F5F5F5"/>
<path d="M102.234 38.6084H88.7548V40.3437H102.234V38.6084Z" fill="#F5F5F5"/>
<path d="M100.376 38.4507H106.052C106.286 38.4507 106.475 38.6399 106.475 38.8732V39.7634C106.475 39.9967 106.286 40.1859 106.052 40.1859H100.376C100.143 40.1859 99.9529 39.9967 99.9529 39.7634V38.8732C99.9529 38.6399 100.143 38.4507 100.376 38.4507Z" fill="#F5F5F5"/>
<path d="M90.2471 89.0269C90.2471 88.8431 90.326 88.6711 90.4572 88.5689L90.7904 88.3098L90.8727 88.2621C91.2965 88.0145 91.7584 87.8666 92.2314 87.8269L106.009 86.6653C106.342 86.637 106.663 86.82 106.848 87.1445C106.889 87.2168 106.938 87.2831 106.993 87.3422L107.803 88.2072C107.926 88.3398 107.997 88.527 107.997 88.7235C107.997 89.1651 107.65 89.4968 107.279 89.4101L107.091 89.3662C106.853 89.5052 106.59 89.5775 106.324 89.5775H90.7191C90.4583 89.5775 90.2471 89.3311 90.2471 89.0269Z" fill="#F5F5F5"/>
<path d="M84.1553 77.9577L84.1731 77.6062C84.1887 77.2914 84.334 76.9969 84.575 76.7924C84.6216 76.7527 84.6652 76.7092 84.7054 76.6623L84.7414 76.62C85.2797 75.9883 85.3259 75.0752 84.8545 74.3928L84.27 73.5469C83.797 72.8616 83.9232 71.9294 84.5619 71.3941L86.0463 70.1501C86.6316 69.6596 86.3161 68.7076 85.5529 68.662H84.4551C84.284 68.662 84.1773 68.4773 84.2624 68.3299C84.2955 68.2724 84.3522 68.2331 84.4174 68.2217L84.8325 68.1511C85.0917 68.1068 85.1637 67.7692 84.9447 67.6238C84.9265 67.6115 84.91 67.5976 84.8952 67.582L84.8071 67.4894C84.4971 67.1637 84.3586 66.7111 84.4331 66.2683L84.7059 64.6479" stroke="#F5F5F5" stroke-width="0.41"/>
</svg>
